<svg width="59" height="63" viewBox="0 0 59 63" fill="none" xmlns="http://www.w3.org/2000/svg">
<path d="M53.1491 17.0286V46.1953C53.1491 57.862 50.2324 60.7786 38.5658 60.7786H21.0658C9.39909 60.7786 6.48242 57.862 6.48242 46.1953V17.0286C6.48242 5.36198 9.39909 2.44531 21.0658 2.44531H38.5658C50.2324 2.44531 53.1491 5.36198 53.1491 17.0286Z" stroke="#15CF92" stroke-width="3.5" stroke-linecap="round" stroke-linejoin="round"/>
<path d="M35.6491 12.6523H23.9824" stroke="#15CF92" stroke-width="3.5" stroke-linecap="round" stroke-linejoin="round"/>
<path d="M29.8158 52.319C32.3125 52.319 34.3366 50.295 34.3366 47.7982C34.3366 45.3014 32.3125 43.2773 29.8158 43.2773C27.319 43.2773 25.2949 45.3014 25.2949 47.7982C25.2949 50.295 27.319 52.319 29.8158 52.319Z" stroke="#15CF92" stroke-width="3.5" stroke-linecap="round" stroke-linejoin="round"/>
</svg>
