<svg width="70" height="71" viewBox="0 0 70 71" fill="none" xmlns="http://www.w3.org/2000/svg">
<path d="M42.1172 56.5232L46.5505 60.9565L55.4172 52.0898" stroke="#15CF92" stroke-width="3.5" stroke-linecap="round" stroke-linejoin="round"/>
<path d="M35.4656 32.6677C35.1739 32.6385 34.8239 32.6385 34.5031 32.6677C27.5614 32.4344 22.0489 26.7469 22.0489 19.7469C22.0198 12.601 27.8239 6.79688 34.9698 6.79688C42.1156 6.79688 47.9198 12.601 47.9198 19.7469C47.9198 26.7469 42.3781 32.4344 35.4656 32.6677Z" stroke="#15CF92" stroke-width="3.5" stroke-linecap="round" stroke-linejoin="round"/>
<path d="M34.9707 64.5751C29.6624 64.5751 24.3832 63.2335 20.3582 60.5501C13.2999 55.8251 13.2999 48.1251 20.3582 43.4293C28.379 38.0626 41.5332 38.0626 49.554 43.4293" stroke="#15CF92" stroke-width="3.5" stroke-linecap="round" stroke-linejoin="round"/>
</svg>
