<svg width="70" height="71" viewBox="0 0 70 71" fill="none" xmlns="http://www.w3.org/2000/svg">
<path d="M56.2924 23.9485V38.9694C56.2924 47.9527 51.1591 51.8026 43.4591 51.8026H17.8216C16.5091 51.8026 15.2549 51.6861 14.0883 51.4236C13.3591 51.3069 12.6591 51.1027 12.0175 50.8694C7.64246 49.2361 4.98828 45.4444 4.98828 38.9694V23.9485C4.98828 14.9651 10.1216 11.1152 17.8216 11.1152H43.4591C49.9925 11.1152 54.6883 13.8861 55.9424 20.2152C56.1466 21.3819 56.2924 22.5776 56.2924 23.9485Z" stroke="#15CF92" stroke-width="3.5" stroke-miterlimit="10" stroke-linecap="round" stroke-linejoin="round"/>
<path d="M65.044 32.7039V47.7248C65.044 56.7082 59.9107 60.5581 52.2107 60.5581H26.5732C24.4148 60.5581 22.4607 60.2666 20.769 59.6249C17.2982 58.3416 14.9357 55.6874 14.0898 51.4291C15.2565 51.6916 16.5107 51.8081 17.8232 51.8081H43.4607C51.1607 51.8081 56.294 47.9582 56.294 38.9748V23.9539C56.294 22.5831 56.1774 21.3582 55.944 20.2207C61.4857 21.3874 65.044 25.2956 65.044 32.7039Z" stroke="#15CF92" stroke-width="3.5" stroke-miterlimit="10" stroke-linecap="round" stroke-linejoin="round"/>
<path d="M30.62 39.1755C34.8726 39.1755 38.32 35.728 38.32 31.4754C38.32 27.2228 34.8726 23.7754 30.62 23.7754C26.3674 23.7754 22.9199 27.2228 22.9199 31.4754C22.9199 35.728 26.3674 39.1755 30.62 39.1755Z" stroke="#15CF92" stroke-width="3.5" stroke-miterlimit="10" stroke-linecap="round" stroke-linejoin="round"/>
<path d="M13.9434 25.0566V37.89" stroke="#15CF92" stroke-width="3.5" stroke-miterlimit="10" stroke-linecap="round" stroke-linejoin="round"/>
<path d="M47.3125 25.0605V37.894" stroke="#15CF92" stroke-width="3.5" stroke-miterlimit="10" stroke-linecap="round" stroke-linejoin="round"/>
</svg>
