<svg width="59" height="59" viewBox="0 0 59 59" fill="none" xmlns="http://www.w3.org/2000/svg">
<path d="M49.9993 16.996V42.2263C49.9993 52.3184 47.4763 54.8415 37.3842 54.8415H22.246C12.1539 54.8415 9.63086 52.3184 9.63086 42.2263V16.996C9.63086 6.90389 12.1539 4.38086 22.246 4.38086H37.3842C47.4763 4.38086 49.9993 6.90389 49.9993 16.996Z" stroke="#15CF92" stroke-width="3.5" stroke-linecap="round" stroke-linejoin="round"/>
<path d="M34.8617 13.2109H24.7695" stroke="#15CF92" stroke-width="3.5" stroke-linecap="round" stroke-linejoin="round"/>
<path d="M29.815 47.5245C31.9748 47.5245 33.7257 45.7736 33.7257 43.6138C33.7257 41.454 31.9748 39.7031 29.815 39.7031C27.6552 39.7031 25.9043 41.454 25.9043 43.6138C25.9043 45.7736 27.6552 47.5245 29.815 47.5245Z" stroke="#15CF92" stroke-width="3.5" stroke-linecap="round" stroke-linejoin="round"/>
</svg>
