<svg width="70" height="71" viewBox="0 0 70 71" fill="none" xmlns="http://www.w3.org/2000/svg">
<path d="M27.1543 43.1315L31.5293 47.5065L43.196 35.8398" stroke="#15CF92" stroke-width="3.5" stroke-linecap="round" stroke-linejoin="round"/>
<path d="M29.1673 17.7604H40.834C46.6673 17.7604 46.6673 14.8437 46.6673 11.9271C46.6673 6.09375 43.7506 6.09375 40.834 6.09375H29.1673C26.2507 6.09375 23.334 6.09375 23.334 11.9271C23.334 17.7604 26.2507 17.7604 29.1673 17.7604Z" stroke="#15CF92" stroke-width="3.5" stroke-miterlimit="10" stroke-linecap="round" stroke-linejoin="round"/>
<path d="M46.6667 11.9844C56.3792 12.5094 61.25 16.0969 61.25 29.426V46.926C61.25 58.5927 58.3333 64.426 43.75 64.426H26.25C11.6667 64.426 8.75 58.5927 8.75 46.926V29.426C8.75 16.126 13.6208 12.5094 23.3333 11.9844" stroke="#15CF92" stroke-width="3.5" stroke-miterlimit="10" stroke-linecap="round" stroke-linejoin="round"/>
</svg>
