<svg width="70" height="71" viewBox="0 0 70 71" fill="none" xmlns="http://www.w3.org/2000/svg">
<path d="M29.3095 7.93231L11.7512 19.3948C6.12201 23.0698 6.12201 31.2948 11.7512 34.9698L29.3095 46.4323C32.4595 48.5031 37.6512 48.5031 40.8012 46.4323L58.272 34.9698C63.872 31.2948 63.872 23.099 58.272 19.424L40.8012 7.96148C37.6512 5.86148 32.4595 5.86148 29.3095 7.93231Z" stroke="#15CF92" stroke-width="3.5" stroke-linecap="round" stroke-linejoin="round"/>
<path d="M16.4198 38.7051L16.3906 52.3842C16.3906 56.0884 19.249 60.0551 22.749 61.2217L32.0531 64.3134C33.6573 64.8384 36.3115 64.8384 37.9448 64.3134L47.249 61.2217C50.749 60.0551 53.6073 56.0884 53.6073 52.3842V38.8509" stroke="#15CF92" stroke-width="3.5" stroke-linecap="round" stroke-linejoin="round"/>
<path d="M62.418 44.3047V26.8047" stroke="#15CF92" stroke-width="3.5" stroke-linecap="round" stroke-linejoin="round"/>
</svg>
