<svg width="70" height="71" viewBox="0 0 70 71" fill="none" xmlns="http://www.w3.org/2000/svg">
<path d="M30.5953 7.24648L16.0411 12.7298C12.687 13.984 9.94531 17.9507 9.94531 21.509V43.1798C9.94531 46.6215 12.2203 51.1423 14.9911 53.2132L27.5328 62.5757C31.6453 65.6673 38.412 65.6673 42.5245 62.5757L55.0661 53.2132C57.837 51.1423 60.112 46.6215 60.112 43.1798V21.509C60.112 17.9215 57.3703 13.9548 54.0161 12.7007L39.462 7.24648C36.9828 6.34232 33.0161 6.34232 30.5953 7.24648Z" stroke="#15CF92" stroke-width="3.5" stroke-linecap="round" stroke-linejoin="round"/>
<path d="M27.9056 35.4873L35.4306 42.079C35.7806 42.3998 36.3348 42.3998 36.6848 42.079L44.2098 35.4873C46.164 33.7665 46.4265 30.8498 44.7931 28.8081C43.1598 26.7665 40.1848 26.3873 38.114 27.9623L36.0723 29.5373L34.0015 27.9915C31.9015 26.4165 28.9556 26.7956 27.3223 28.8373C25.689 30.8498 25.9515 33.7956 27.9056 35.4873Z" stroke="#15CF92" stroke-width="3.5" stroke-linecap="round" stroke-linejoin="round"/>
</svg>
