<svg width="83" height="71" viewBox="0 0 83 71" fill="none" xmlns="http://www.w3.org/2000/svg">
<mask id="path-1-inside-1_3380_2404" fill="white">
<path d="M43.3281 4.27734C46.6773 7.2247 56.1627 12.5186 69.9375 12.125C67.9221 31.271 76.9051 51.9169 43.8135 68.1104L43.0234 68.4922C8.99954 52.2422 18.1406 31.4219 16.1094 12.125C30.3281 12.5312 39.9766 6.8776 43.0234 4L43.3281 4.27734Z"/>
</mask>
<path d="M43.3281 4.27734L41.9818 5.75637L41.9943 5.76767L42.0069 5.77876L43.3281 4.27734ZM69.9375 12.125L71.9265 12.3344L72.1659 10.0605L69.8804 10.1258L69.9375 12.125ZM43.8135 68.1104L44.6838 69.9111L44.6926 69.9068L43.8135 68.1104ZM43.0234 68.4922L42.1615 70.2969L43.0286 70.711L43.8937 70.2929L43.0234 68.4922ZM16.1094 12.125L16.1665 10.1258L13.881 10.0605L14.1204 12.3344L16.1094 12.125ZM43.0234 4L44.3697 2.52098L42.9984 1.27269L41.6502 2.54597L43.0234 4ZM43.3281 4.27734L42.0069 5.77876C45.7303 9.05549 55.7065 14.5324 69.9946 14.1242L69.9375 12.125L69.8804 10.1258C56.6189 10.5047 47.6243 5.3939 44.6494 2.77593L43.3281 4.27734ZM69.9375 12.125L67.9485 11.9156C67.4292 16.8485 67.618 21.8928 67.659 26.6898C67.7005 31.5536 67.595 36.2385 66.5773 40.7883C64.5906 49.6703 59.0386 58.4333 42.9344 66.3139L43.8135 68.1104L44.6926 69.9068C61.6801 61.5939 68.1824 51.9373 70.4809 41.6615C71.6058 36.6323 71.7007 31.5538 71.6588 26.6557C71.6164 21.6907 71.4381 16.9746 71.9265 12.3344L69.9375 12.125ZM43.8135 68.1104L42.9432 66.3096L42.1531 66.6915L43.0234 68.4922L43.8937 70.2929L44.6838 69.9111L43.8135 68.1104ZM43.0234 68.4922L43.8854 66.6875C27.3077 58.7698 21.5766 49.9421 19.5182 41.0024C18.4637 36.4229 18.3474 31.7044 18.387 26.8042C18.426 21.9724 18.6216 16.8861 18.0984 11.9156L16.1094 12.125L14.1204 12.3344C14.6128 17.0123 14.4275 21.7649 14.3871 26.7719C14.3472 31.7107 14.453 36.831 15.6202 41.8999C18.005 52.2572 24.7153 61.9645 42.1615 70.2969L43.0234 68.4922ZM16.1094 12.125L16.0523 14.1242C30.7904 14.5453 40.9564 8.70322 44.3967 5.45403L43.0234 4L41.6502 2.54597C38.9968 5.05199 29.8659 10.5172 16.1665 10.1258L16.1094 12.125ZM43.0234 4L41.6771 5.47902L41.9818 5.75637L43.3281 4.27734L44.6744 2.79832L44.3697 2.52098L43.0234 4Z" fill="#15CF92" mask="url(#path-1-inside-1_3380_2404)"/>
<path d="M13.0625 10.0938C22 11.3125 36.9297 7.21615 43.0234 4.50781L39.4688 8.0625L28.8047 12.125L17.6328 13.1406V38.0234L23.2188 52.2422L32.3594 60.875L43 68.5C5.42188 58.3438 15.0938 28.375 13.0625 10.0938Z" fill="#15CF92"/>
<path d="M44.7197 26.5449C42.0138 24.3529 38.8418 24.3625 36.2881 25.8447C33.5283 27.4471 31.5382 30.738 31.626 34.6279C31.7176 38.6615 34.5606 42.3036 37.8701 45.0166C39.5025 46.3548 41.195 47.4227 42.6045 48.1514C43.3094 48.5158 43.9323 48.7888 44.4307 48.9688C44.9618 49.1605 45.2576 49.2109 45.3496 49.2109C45.4416 49.2109 45.7374 49.1605 46.2686 48.9688C46.7669 48.7888 47.3897 48.5158 48.0947 48.1514C49.5044 47.4227 51.1975 46.3549 52.8301 45.0166C56.1397 42.3036 58.9824 38.6614 59.0732 34.6279C59.161 30.7382 57.1715 27.4477 54.4111 25.8438C51.857 24.3629 48.685 24.3533 45.9795 26.5449L45.3496 27.0547L44.7197 26.5449Z" stroke="#15CF92" stroke-width="2"/>
<path d="M45.3496 26.3447C41.7949 22.9592 32.4089 21.7737 30.1152 31.9314C27.8216 42.0891 39.4251 48.5187 45.3496 49.1955" stroke="#15CF92" stroke-width="2"/>
</svg>
