<svg width="83" height="71" viewBox="0 0 83 71" fill="none" xmlns="http://www.w3.org/2000/svg">
<path d="M49.1885 60.0918C49.7165 59.5972 50.4066 59.4536 50.9014 59.7383L51.0732 59.8369L51.2656 59.791C51.7432 59.6783 52.2562 59.7099 52.6797 59.8691V59.8701C53.61 60.2214 53.877 60.9133 53.7354 61.5176C53.5867 62.1514 52.9472 62.8488 51.7266 63.0342H51.7256C51.1086 63.1301 50.4693 63.0446 49.9307 62.8223C49.3885 62.5985 48.9842 62.2523 48.7822 61.8604L48.7812 61.8594L48.7285 61.7451C48.4931 61.1685 48.7043 60.5453 49.1885 60.0918Z" fill="#15CF92" stroke="#15CF92"/>
<path d="M17.4365 69V2L14.6055 6.24687V68.0567L17.4365 69Z" fill="#15CF92"/>
<path d="M22.1553 11.4375H60.3736" stroke="#15CF92" stroke-width="2"/>
<path d="M22.1553 20.4023H60.3736" stroke="#15CF92" stroke-width="2"/>
<path d="M22.1553 29.3652H60.3736" stroke="#15CF92" stroke-width="2"/>
<path d="M22.1553 38.3301H60.3736" stroke="#15CF92" stroke-width="2"/>
<path d="M22.1553 47.2949H60.3736" stroke="#15CF92" stroke-width="2"/>
<path d="M17.9082 55.7891H68.3941" stroke="#15CF92" stroke-width="2"/>
<path d="M67.3945 3V68H18.4365V3H67.3945Z" stroke="#15CF92" stroke-width="2"/>
</svg>
