<svg width="83" height="71" viewBox="0 0 83 71" fill="none" xmlns="http://www.w3.org/2000/svg">
<path d="M79.2068 3.5H53.9677C51.6491 3.50107 49.3757 4.14088 47.3969 5.34919C45.4181 6.5575 43.8104 8.28761 42.7503 10.3496C41.6902 8.28761 40.0825 6.5575 38.1037 5.34919C36.1249 4.14088 33.8515 3.50107 31.5329 3.5H6.29378C5.9219 3.5 5.56525 3.64773 5.30229 3.91069C5.03933 4.17365 4.8916 4.53029 4.8916 4.90217V55.3804C4.8916 55.7523 5.03933 56.109 5.30229 56.3719C5.56525 56.6349 5.9219 56.7826 6.29378 56.7826H31.5329C34.1361 56.7826 36.6326 57.8167 38.4733 59.6574C40.314 61.4981 41.3481 63.9947 41.3481 66.5978C41.3481 66.9697 41.4958 67.3264 41.7588 67.5893C42.0218 67.8523 42.3784 68 42.7503 68C43.1222 68 43.4788 67.8523 43.7418 67.5893C44.0047 67.3264 44.1525 66.9697 44.1525 66.5978C44.1525 63.9947 45.1866 61.4981 47.0273 59.6574C48.868 57.8167 51.3645 56.7826 53.9677 56.7826H79.2068C79.5787 56.7826 79.9353 56.6349 80.1983 56.3719C80.4613 56.109 80.609 55.7523 80.609 55.3804V4.90217C80.609 4.53029 80.4613 4.17365 80.1983 3.91069C79.9353 3.64773 79.5787 3.5 79.2068 3.5ZM31.5329 53.9783H7.69595V6.30435H31.5329C34.1361 6.30435 36.6326 7.33845 38.4733 9.17916C40.314 11.0199 41.3481 13.5164 41.3481 16.1196V58.6755C40.1673 57.2086 38.6726 56.0252 36.974 55.2123C35.2753 54.3993 33.416 53.9777 31.5329 53.9783ZM77.8046 53.9783H53.9677C52.0843 53.9783 50.2249 54.4007 48.5263 55.2142C46.8277 56.0277 45.3331 57.2117 44.1525 58.679V16.1196C44.1525 13.5164 45.1866 11.0199 47.0273 9.17916C48.868 7.33845 51.3645 6.30435 53.9677 6.30435H77.8046V53.9783Z" fill="#15CF92"/>
<path d="M2 8.5L5 4.5L6.5 4V56H29.5H36.5L40.5 60L41.6046 65.1546C41.7767 65.7208 41.9113 66.3348 42 67L41.6046 65.1546C40.2239 60.614 36.4264 59.1482 34.5 59H2V8.5Z" fill="#15CF92"/>
</svg>
