<svg width="83" height="71" viewBox="0 0 83 71" fill="none" xmlns="http://www.w3.org/2000/svg">
<path fill-rule="evenodd" clip-rule="evenodd" d="M12.8129 49.3518C12.7449 49.073 12.7107 48.787 12.7112 48.5V14.5714C12.7112 13.6242 13.0871 12.7158 13.7564 12.046C14.4256 11.3763 15.3333 11 16.2798 11H69.8092C70.7557 11 71.6634 11.3763 72.3326 12.046C73.0019 12.7158 73.3779 13.6242 73.3779 14.5714V48.5C73.3779 48.9357 73.2993 49.3518 73.1584 49.7375L78.7094 58.2375C78.8853 58.5069 78.9852 58.8188 78.9985 59.1403C79.0118 59.4619 78.938 59.781 78.785 60.064C78.632 60.3471 78.4054 60.5834 78.1292 60.7482C77.853 60.913 77.5375 61 77.2159 61H8.78566C8.4674 61.0002 8.15486 60.9153 7.88045 60.7539C7.60604 60.5926 7.37974 60.3607 7.22502 60.0824C7.07031 59.804 6.9928 59.4893 7.00053 59.1709C7.00826 58.8525 7.10095 58.5419 7.269 58.2714L12.8129 49.3518ZM14.2798 13.5714H71.8092V48.5H14.2798V13.5714Z" fill="#15CF92"/>
<path d="M10 15L14.5 11.5V48.5L8 60.5L7 59L10 48V15Z" fill="#15CF92"/>
<path d="M42 38L33.5 28L32.5 29L41 39L42 38ZM42 38L58 23.5" stroke="#15CF92" stroke-width="2"/>
</svg>
