<svg width="172" height="160" viewBox="0 0 172 160" fill="none" xmlns="http://www.w3.org/2000/svg">
<path d="M80.418 142.94L79.5512 155.888L70.9784 155.314L71.1294 153.057L76.9648 153.448L77.1713 150.362L71.905 150.01L72.0561 147.753L77.3224 148.105L77.6805 142.757L80.418 142.94Z" fill="#191919"/>
<path d="M68.919 141.616C69.5275 141.74 70.0484 141.956 70.4815 142.264C70.9138 142.576 71.2261 142.969 71.4185 143.443C71.6059 143.921 71.6356 144.475 71.5077 145.104C71.4 145.634 71.2123 146.059 70.9445 146.379C70.6768 146.7 70.353 146.936 69.9731 147.087C69.5932 147.238 69.1787 147.327 68.7296 147.352C68.2763 147.376 67.8091 147.363 67.328 147.313C66.7615 147.258 66.3035 147.221 65.9539 147.201C65.6036 147.186 65.3413 147.215 65.1671 147.287C64.9929 147.36 64.8852 147.497 64.8439 147.7L64.8364 147.737C64.7564 148.13 64.8188 148.46 65.0234 148.726C65.2239 148.991 65.5497 149.169 66.0009 149.261C66.477 149.357 66.8772 149.329 67.2016 149.175C67.5252 149.025 67.7644 148.802 67.9195 148.506L70.3256 149.202C70.0836 149.756 69.7375 150.208 69.2874 150.556C68.8365 150.908 68.3002 151.14 67.6785 151.25C67.0518 151.364 66.3577 151.344 65.596 151.189C65.0661 151.082 64.5716 150.916 64.1126 150.694C63.6493 150.47 63.2559 150.19 62.9322 149.852C62.6044 149.514 62.3724 149.118 62.2363 148.664C62.0994 148.213 62.0885 147.705 62.2038 147.137L63.5113 140.705L66.0199 141.214L65.7511 142.537L65.8256 142.552C66.0393 142.285 66.2977 142.064 66.6006 141.889C66.9027 141.717 67.2468 141.604 67.6331 141.549C68.0185 141.498 68.4471 141.52 68.919 141.616ZM67.7904 143.288C67.4013 143.209 67.0421 143.215 66.713 143.308C66.3829 143.405 66.1061 143.568 65.8826 143.799C65.659 144.029 65.5131 144.312 65.445 144.647L65.2393 145.66C65.333 145.623 65.4569 145.596 65.6111 145.58C65.7602 145.567 65.9276 145.56 66.1132 145.559C66.2979 145.562 66.4822 145.567 66.6661 145.575C66.8492 145.586 67.0152 145.596 67.1643 145.605C67.484 145.622 67.7699 145.605 68.0219 145.553C68.2739 145.5 68.4813 145.402 68.6442 145.259C68.8061 145.119 68.9124 144.925 68.9629 144.677C69.0361 144.317 68.9616 144.015 68.7395 143.772C68.5125 143.532 68.1961 143.37 67.7904 143.288Z" fill="#191919"/>
<path d="M53.2501 144.528L55.6344 145.195C55.605 145.408 55.6285 145.618 55.7047 145.823C55.7796 146.032 55.9082 146.222 56.0904 146.393C56.2672 146.566 56.5033 146.704 56.7986 146.806C57.1937 146.944 57.556 146.976 57.8855 146.902C58.2137 146.833 58.4256 146.66 58.5212 146.385C58.5974 146.166 58.574 145.95 58.4511 145.737C58.3282 145.524 58.0692 145.298 57.6741 145.058L56.1264 144.145C55.2963 143.651 54.7324 143.124 54.4348 142.565C54.1372 142.005 54.1034 141.394 54.3334 140.732C54.5426 140.129 54.9038 139.662 55.4169 139.331C55.9261 138.998 56.5322 138.81 57.2354 138.768C57.9333 138.729 58.6812 138.848 59.4793 139.125C60.6964 139.548 61.5781 140.138 62.1244 140.895C62.6654 141.655 62.8453 142.496 62.6641 143.417L60.1104 142.678C60.1634 142.28 60.0782 141.933 59.8548 141.636C59.63 141.344 59.2902 141.118 58.8353 140.96C58.3883 140.805 57.9994 140.766 57.6685 140.844C57.3322 140.924 57.1142 141.101 57.0146 141.375C56.9382 141.607 56.9702 141.831 57.1104 142.045C57.2493 142.263 57.5044 142.482 57.8758 142.7L59.3578 143.57C60.1933 144.061 60.7536 144.605 61.0388 145.2C61.32 145.794 61.3414 146.434 61.103 147.121C60.898 147.711 60.5617 148.165 60.0942 148.481C59.6227 148.795 59.0554 148.967 58.3925 148.996C57.7255 149.024 56.9989 148.902 56.2128 148.629C55.0516 148.225 54.223 147.663 53.727 146.94C53.227 146.217 53.0681 145.413 53.2501 144.528Z" fill="#191919"/>
<path d="M44.6986 143.404L45.6131 141.595L50.8442 144.238L49.9297 146.048L44.6986 143.404ZM47.6905 147.529L45.2813 146.311L49.3736 138.213C49.486 137.991 49.5397 137.8 49.5347 137.641C49.5278 137.486 49.4765 137.354 49.3806 137.244C49.2809 137.132 49.15 137.035 48.9879 136.953C48.8748 136.896 48.757 136.848 48.6343 136.81C48.5098 136.775 48.4145 136.749 48.3485 136.729L48.8755 134.745C49.0152 134.769 49.2067 134.811 49.4502 134.872C49.6955 134.93 49.9775 135.032 50.2961 135.179C50.8882 135.45 51.3581 135.784 51.7059 136.183C52.0499 136.579 52.2483 137.025 52.301 137.52C52.3536 138.015 52.2343 138.546 51.9428 139.114L47.6905 147.529Z" fill="#191919"/>
<path d="M43.6605 131.006C44.0052 131.243 44.2176 131.568 44.2975 131.982C44.3715 132.396 44.2902 132.776 44.0535 133.121C43.8193 133.462 43.4966 133.671 43.0854 133.747C42.6708 133.821 42.2911 133.74 41.9463 133.503C41.612 133.274 41.4031 132.951 41.3197 132.535C41.2363 132.119 41.3118 131.741 41.5461 131.399C41.7039 131.17 41.9077 131 42.1576 130.889C42.4016 130.78 42.6571 130.733 42.9241 130.747C43.1886 130.764 43.4341 130.851 43.6605 131.006Z" fill="#191919"/>
<path d="M24.0697 126.297C23.7121 126.666 23.5493 127.089 23.5814 127.565C23.6134 128.041 23.8422 128.531 24.2676 129.034C24.5567 129.376 24.8492 129.624 25.145 129.777C25.4377 129.934 25.7211 130.004 25.9952 129.988C26.2665 129.969 26.5087 129.869 26.7216 129.689C26.9045 129.546 27.0279 129.378 27.092 129.185C27.1534 128.989 27.1711 128.778 27.1451 128.551C27.1159 128.327 27.0564 128.09 26.9664 127.839C26.8733 127.592 26.7595 127.339 26.6252 127.082L26.0854 126.012C25.8167 125.498 25.6103 124.992 25.4661 124.494C25.3219 123.997 25.2558 123.516 25.2676 123.053C25.2795 122.589 25.3837 122.15 25.5803 121.734C25.7742 121.316 26.0763 120.931 26.4865 120.578C27.0956 120.069 27.7524 119.779 28.4566 119.709C29.1549 119.639 29.8694 119.787 30.6 120.154C31.3247 120.52 32.0279 121.107 32.7097 121.913C33.3861 122.713 33.8526 123.514 34.1092 124.315C34.3632 125.112 34.3903 125.88 34.1905 126.619C33.9848 127.357 33.5323 128.035 32.8331 128.654L31.119 126.627C31.4322 126.323 31.6291 125.994 31.7099 125.638C31.7847 125.281 31.7586 124.913 31.6315 124.534C31.4984 124.154 31.2792 123.784 30.9737 123.422C30.6737 123.068 30.3616 122.803 30.0375 122.629C29.7106 122.452 29.3939 122.368 29.0873 122.379C28.7807 122.389 28.5081 122.495 28.2694 122.697C28.0468 122.885 27.9156 123.109 27.8758 123.37C27.8333 123.627 27.8651 123.926 27.9714 124.268C28.075 124.606 28.2359 124.993 28.4543 125.428L29.0956 126.736C29.5987 127.744 29.8387 128.672 29.8155 129.521C29.7923 130.37 29.4133 131.103 28.6783 131.719C28.081 132.229 27.4218 132.513 26.7007 132.569C25.9768 132.623 25.2491 132.472 24.5175 132.117C23.7859 131.762 23.1146 131.223 22.5037 130.5C21.8819 129.765 21.465 129.017 21.253 128.256C21.0382 127.491 21.0255 126.766 21.2148 126.081C21.4041 125.395 21.7898 124.798 22.372 124.289L24.0697 126.297Z" fill="#191919"/>
<path d="M28.262 116.13L20.0585 121.367L18.6061 119.091L26.8096 113.854L28.262 116.13ZM18.2714 120.899C18.4873 121.237 18.5604 121.599 18.4906 121.984C18.4151 122.368 18.2188 122.661 17.9019 122.863C17.5886 123.064 17.2436 123.116 16.867 123.02C16.4846 122.924 16.1854 122.706 15.9695 122.368C15.7535 122.03 15.6834 121.669 15.759 121.285C15.8287 120.899 16.0202 120.607 16.3336 120.407C16.6505 120.204 17.0001 120.152 17.3826 120.248C17.7592 120.344 18.0554 120.56 18.2714 120.899Z" fill="#191919"/>
<path d="M25.7517 113.381L16.9234 117.478L15.8405 115.145L17.3981 114.422L17.3501 114.318C16.7474 114.374 16.1971 114.257 15.6991 113.967C15.2011 113.676 14.8134 113.232 14.536 112.634C14.255 112.029 14.1672 111.443 14.2726 110.878C14.3741 110.314 14.6486 109.842 15.0963 109.462L15.0536 109.37C14.4643 109.424 13.9089 109.286 13.3875 108.955C12.8604 108.622 12.4467 108.132 12.1462 107.485C11.7639 106.661 11.7161 105.87 12.0028 105.113C12.2838 104.354 12.9033 103.752 13.8613 103.308L19.7985 100.553L20.9321 102.995L15.4776 105.527C14.9872 105.754 14.6798 106.055 14.5554 106.429C14.4311 106.804 14.4596 107.186 14.641 107.577C14.8473 108.022 15.15 108.303 15.5491 108.42C15.9444 108.539 16.3719 108.492 16.8318 108.279L22.223 105.777L23.3246 108.151L17.8183 110.706C17.3854 110.907 17.0983 111.192 16.9571 111.56C16.8142 111.924 16.8361 112.308 17.0228 112.71C17.149 112.982 17.3318 113.195 17.5711 113.35C17.8048 113.502 18.0736 113.584 18.3775 113.597C18.6776 113.611 18.9905 113.543 19.3162 113.392L24.6155 110.933L25.7517 113.381Z" fill="#191919"/>
<path d="M22.8866 98.0861L10.1051 102.051L9.31664 99.5092L10.878 99.0248L10.8423 98.9098C10.5572 98.8745 10.2523 98.7899 9.92775 98.6562C9.59792 98.5197 9.29245 98.3048 9.01133 98.0117C8.72493 97.7157 8.501 97.3075 8.33956 96.7871C8.1293 96.1093 8.11283 95.4289 8.29016 94.7458C8.46345 94.064 8.85194 93.4415 9.45564 92.8783C10.0553 92.3164 10.8877 91.8702 11.9528 91.5398C12.9897 91.2181 13.9171 91.114 14.7351 91.2273C15.5478 91.3379 16.2266 91.6227 16.7715 92.0817C17.3111 92.5379 17.6904 93.1191 17.9094 93.8251C18.0646 94.3254 18.1139 94.7767 18.0574 95.179C17.9996 95.5773 17.88 95.9262 17.6987 96.2257C17.5134 96.5265 17.3097 96.7754 17.0878 96.9725L17.1122 97.0511L22.0868 95.508L22.8866 98.0861ZM13.9701 98.0856C14.5228 97.9141 14.9812 97.6879 15.3451 97.4069C15.7091 97.126 15.961 96.8046 16.1009 96.4427C16.2367 96.0822 16.2401 95.6941 16.1112 95.2785C15.9811 94.8589 15.756 94.5396 15.4359 94.3204C15.1118 94.1025 14.7208 93.9828 14.263 93.9611C13.7998 93.9367 13.298 94.0084 12.7573 94.1761C12.2207 94.3425 11.7719 94.5636 11.4107 94.8393C11.0495 95.115 10.799 95.4337 10.6591 95.7955C10.5193 96.1574 10.515 96.5501 10.6464 96.9737C10.7766 97.3933 10.9977 97.7139 11.3097 97.9356C11.6205 98.1532 12.0034 98.2755 12.4584 98.3024C12.9135 98.3293 13.4173 98.257 13.9701 98.0856Z" fill="#191919"/>
<path d="M4.84187 88.0401L17.6379 85.8817L18.0868 88.5433L5.29083 90.7017L4.84187 88.0401Z" fill="#191919"/>
<path d="M17.399 80.2481C17.4324 81.2486 17.2586 82.1167 16.8774 82.8522C16.4919 83.5836 15.932 84.156 15.1977 84.5694C14.4592 84.9829 13.577 85.2068 12.5511 85.2411C11.5505 85.2746 10.6659 85.1097 9.89716 84.7466C9.12847 84.3834 8.52124 83.8564 8.07548 83.1655C7.62958 82.4703 7.39069 81.6457 7.35879 80.6915C7.33733 80.0498 7.42079 79.449 7.60917 78.889C7.79319 78.3249 8.08304 77.8292 8.47873 77.4017C8.87427 76.9701 9.37847 76.6278 9.99132 76.3748C10.5999 76.122 11.318 75.9818 12.1455 75.9541L12.8864 75.9293L13.161 84.1429L11.4892 84.1988L11.2995 78.5247C10.9111 78.5377 10.5698 78.6336 10.2757 78.8125C9.98159 78.9914 9.75511 79.2335 9.59626 79.5389C9.43304 79.8403 9.358 80.1872 9.37113 80.5799C9.38482 80.9894 9.49195 81.3493 9.69252 81.6596C9.88872 81.9658 10.1481 82.2023 10.4707 82.369C10.789 82.5359 11.1404 82.615 11.5247 82.6064L13.1142 82.5532C13.5955 82.5371 14.0084 82.4346 14.3529 82.2455C14.6972 82.0523 14.9589 81.7878 15.1379 81.4522C15.3168 81.1165 15.3988 80.7228 15.3837 80.2711C15.3736 79.9713 15.3222 79.6983 15.2295 79.452C15.1367 79.2058 15.0029 78.9968 14.8281 78.8251C14.6533 78.6535 14.4419 78.5253 14.194 78.4406L14.2752 75.94C14.8789 76.0466 15.4111 76.2887 15.8718 76.6664C16.328 77.04 16.691 77.5308 16.9607 78.1389C17.2261 78.7428 17.3721 79.4459 17.399 80.2481Z" fill="#191919"/>
<path d="M17.748 69.9438C17.7061 70.3599 17.5231 70.7024 17.1988 70.9712C16.8708 71.2354 16.4988 71.3466 16.0827 71.3047C15.6708 71.2633 15.3325 71.0806 15.0679 70.7568C14.8037 70.4288 14.6926 70.0568 14.7344 69.6407C14.775 69.2372 14.9576 68.8989 15.2823 68.6259C15.6069 68.3529 15.9752 68.2371 16.3871 68.2785C16.6645 68.3064 16.9116 68.4035 17.1284 68.5696C17.3414 68.7312 17.5058 68.9324 17.6217 69.1733C17.7334 69.4138 17.7754 69.6706 17.748 69.9438Z" fill="#191919"/>
<path d="M19.9125 61.107L7.80278 56.4431L9.64286 51.6654C9.99508 50.7509 10.4593 50.0334 11.0355 49.5129C11.6092 48.987 12.259 48.6691 12.9848 48.5594C13.7081 48.4442 14.4699 48.5407 15.2702 48.8489C16.0743 49.1586 16.6993 49.5985 17.1452 50.1685C17.5871 50.7371 17.835 51.4097 17.889 52.1864C17.9444 52.9592 17.793 53.8108 17.4347 54.7411L16.2027 57.94L14.145 57.1475L15.2176 54.3625C15.4058 53.8737 15.4952 53.4418 15.4857 53.067C15.4761 52.6921 15.3677 52.3742 15.1604 52.1133C14.9546 51.8485 14.6526 51.6394 14.2545 51.486C13.8524 51.3312 13.4823 51.2814 13.1441 51.3367C12.8074 51.3882 12.5051 51.5501 12.2372 51.8226C11.9669 52.0897 11.7368 52.4696 11.547 52.9624L10.882 54.6889L20.8985 58.5467L19.9125 61.107ZM16.9203 52.4448L23.5903 51.5576L22.5018 54.384L15.8568 55.2062L16.9203 52.4448Z" fill="#191919"/>
<path d="M26.1647 47.594C25.6835 48.4719 25.0916 49.1302 24.3888 49.5688C23.6844 50.0016 22.9109 50.2088 22.0685 50.1902C21.2223 50.1697 20.3492 49.9128 19.449 49.4195C18.571 48.9383 17.8939 48.3457 17.4176 47.6415C16.9413 46.9373 16.6874 46.1744 16.656 45.3527C16.6266 44.5274 16.8413 43.6961 17.3001 42.8589C17.6087 42.2958 17.9867 41.8214 18.4341 41.4356C18.8799 41.044 19.3819 40.7652 19.9402 40.5991C20.5005 40.4293 21.1088 40.3917 21.765 40.4864C22.4175 40.579 23.1068 40.8243 23.8328 41.2222L24.483 41.5785L20.5334 48.7854L19.0665 47.9815L21.7949 43.0028C21.4541 42.816 21.1116 42.7247 20.7674 42.7287C20.4232 42.7327 20.1049 42.8257 19.8126 43.0075C19.5186 43.1835 19.2772 43.4438 19.0884 43.7884C18.8915 44.1477 18.8003 44.5119 18.8147 44.8811C18.8275 45.2446 18.9301 45.5802 19.1227 45.8881C19.3116 46.1939 19.5735 46.441 19.9086 46.6294L21.3033 47.3938C21.7256 47.6252 22.1331 47.7474 22.5259 47.7603C22.9206 47.7695 23.2805 47.6753 23.6056 47.4777C23.9306 47.2801 24.2018 46.9831 24.419 46.5868C24.5631 46.3237 24.658 46.0626 24.7037 45.8035C24.7494 45.5443 24.7408 45.2964 24.6779 45.0596C24.6149 44.8228 24.4984 44.6048 24.3282 44.4055L25.6724 42.2954C26.1376 42.6948 26.4721 43.1743 26.6759 43.734C26.8781 44.288 26.9403 44.8953 26.8625 45.5559C26.783 46.2108 26.5504 46.8902 26.1647 47.594Z" fill="#191919"/>
<path d="M21.6625 31.7562L32.1098 39.4537L30.5086 41.6268L20.0614 33.9293L21.6625 31.7562Z" fill="#191919"/>
<path d="M34.6272 36.4644L27.6312 29.6984L29.5077 27.7581L36.5037 34.5241L34.6272 36.4644ZM27.672 27.8515C27.393 28.1399 27.058 28.2949 26.667 28.3164C26.2759 28.3319 25.9453 28.2089 25.675 27.9476C25.4078 27.6892 25.277 27.3657 25.2824 26.9773C25.2878 26.5828 25.4299 26.2414 25.7089 25.9529C25.9879 25.6645 26.3229 25.5125 26.714 25.497C27.105 25.4755 27.4341 25.594 27.7013 25.8524C27.9716 26.1138 28.104 26.4417 28.0986 26.8361C28.0932 27.2245 27.951 27.563 27.672 27.8515Z" fill="#191919"/>
<path d="M40.0499 31.6504C39.5626 32.0353 39.0615 32.2937 38.5468 32.4257C38.0294 32.5543 37.5274 32.539 37.0409 32.3795C36.5551 32.2142 36.1132 31.8795 35.7153 31.3756C35.3802 30.9513 35.1766 30.5334 35.1047 30.1219C35.0327 29.7105 35.0617 29.3109 35.1914 28.9231C35.3212 28.5354 35.5215 28.1619 35.7923 27.8027C36.0664 27.441 36.378 27.0926 36.7271 26.7577C37.1347 26.3605 37.4587 26.0346 37.6991 25.7802C37.9369 25.5224 38.0844 25.3037 38.1416 25.1239C38.1988 24.9442 38.1633 24.7731 38.035 24.6106L38.0115 24.5808C37.7628 24.2659 37.4709 24.1007 37.1359 24.0854C36.8041 24.0675 36.4576 24.2012 36.0962 24.4866C35.715 24.7876 35.4784 25.1117 35.3865 25.4588C35.292 25.8026 35.3077 26.1293 35.4337 26.4388L33.3488 27.8269C33.0818 27.2842 32.9606 26.7286 32.9853 26.1601C33.0074 25.5883 33.1768 25.0292 33.4936 24.483C33.8112 23.9308 34.2749 23.4139 34.8849 22.9322C35.3092 22.5971 35.7546 22.3261 36.221 22.1193C36.6908 21.9098 37.1589 21.7904 37.6255 21.761C38.0955 21.729 38.5479 21.8078 38.9827 21.9972C39.415 22.1833 39.8105 22.5035 40.1691 22.9577L44.2374 28.1094L42.2284 29.6959L41.392 28.6367L41.3323 28.6838C41.3982 29.0194 41.4003 29.3595 41.3388 29.7041C41.2746 30.0455 41.1389 30.3814 40.9316 30.7119C40.7217 31.0391 40.4278 31.352 40.0499 31.6504ZM39.502 29.7094C39.8137 29.4633 40.0404 29.1846 40.1822 28.8735C40.3214 28.559 40.3752 28.242 40.3436 27.9225C40.312 27.603 40.1901 27.309 39.9781 27.0405L39.338 26.2299C39.3057 26.3254 39.246 26.4372 39.1587 26.5652C39.0722 26.6874 38.9694 26.8197 38.8504 26.9621C38.7288 27.1012 38.6059 27.2386 38.4817 27.3744C38.3548 27.5069 38.24 27.6272 38.137 27.7354C37.9172 27.9682 37.7458 28.1977 37.623 28.4239C37.5002 28.6501 37.4411 28.8717 37.4457 29.0888C37.4476 29.3025 37.5271 29.5089 37.6842 29.7078C37.912 29.9962 38.1905 30.1342 38.5198 30.1217C38.8497 30.1034 39.1772 29.9659 39.502 29.7094Z" fill="#191919"/>
<path d="M45.0434 27.6102L38.4302 16.445L40.7527 15.0694L43.2391 19.2673L43.3099 19.2253C43.2782 18.9397 43.2898 18.6235 43.3447 18.2768C43.401 17.9243 43.5392 17.5774 43.7592 17.236C43.9806 16.8888 44.3258 16.5763 44.7947 16.2986C45.4053 15.9369 46.0633 15.7632 46.7689 15.7773C47.4723 15.7879 48.1679 16.0215 48.8557 16.4782C49.5413 16.9312 50.1683 17.6375 50.7367 18.597C51.2899 19.5311 51.6062 20.4091 51.6856 21.2311C51.7664 22.0473 51.6468 22.7736 51.3265 23.41C51.0078 24.0407 50.5304 24.5444 49.8944 24.9211C49.4437 25.188 49.0162 25.3406 48.6117 25.3789C48.2109 25.415 47.8438 25.3796 47.5104 25.2727C47.1749 25.1621 46.8855 25.0217 46.6424 24.8515L46.5388 24.9129L47.3331 26.254L45.0434 27.6102ZM44.8368 22.0768C45.1318 22.5747 45.4581 22.9681 45.8157 23.257C46.1734 23.5459 46.5445 23.7165 46.9289 23.7687C47.3111 23.8172 47.6894 23.7306 48.0638 23.5089C48.4417 23.285 48.7002 22.992 48.8392 22.6298C48.976 22.264 49.0019 21.8559 48.9168 21.4055C48.8332 20.9494 48.6471 20.4778 48.3587 19.9908C48.0724 19.5074 47.7533 19.122 47.4014 18.8345C47.0494 18.5471 46.6813 18.3773 46.2969 18.3251C45.9125 18.2729 45.5295 18.3599 45.1479 18.5859C44.7699 18.8098 44.5093 19.0992 44.366 19.4541C44.2263 19.8068 44.1962 20.2076 44.2755 20.6565C44.3548 21.1054 44.5419 21.5788 44.8368 22.0768Z" fill="#191919"/>
<path d="M52.615 9.19966L57.681 21.1467L55.196 22.2005L50.13 10.2534L52.615 9.19966Z" fill="#191919"/>
<path d="M63.1083 19.6087C62.1427 19.8732 61.258 19.9053 60.4542 19.705C59.6534 19.4996 58.9668 19.0876 58.3944 18.4692C57.8209 17.8466 57.3986 17.0404 57.1274 16.0504C56.8629 15.0848 56.8182 14.1861 56.9933 13.3541C57.1683 12.5222 57.5402 11.8093 58.109 11.2155C58.6819 10.6206 59.4287 10.1971 60.3494 9.94484C60.9687 9.7752 61.5725 9.7171 62.1609 9.77053C62.7522 9.81878 63.3017 9.98581 63.8092 10.2716C64.3208 10.5563 64.7707 10.9674 65.1588 11.505C65.5458 12.0384 65.8487 12.7044 66.0674 13.5029L66.2633 14.2179L58.3371 16.3891L57.8951 14.7758L63.3708 13.2758C63.2681 12.901 63.0956 12.5913 62.8534 12.3467C62.6112 12.1021 62.3232 11.9379 61.9893 11.8542C61.6583 11.7652 61.3034 11.7727 60.9245 11.8765C60.5293 11.9847 60.2041 12.1724 59.9487 12.4394C59.6964 12.7013 59.5265 13.0084 59.439 13.3608C59.3505 13.7092 59.355 14.0693 59.4525 14.4412L59.8727 15.9751C59.9999 16.4395 60.1954 16.8174 60.4591 17.1086C60.7269 17.3988 61.0448 17.592 61.4128 17.6883C61.7808 17.7846 62.1828 17.773 62.6187 17.6536C62.908 17.5744 63.1617 17.4611 63.3797 17.3138C63.5978 17.1665 63.77 16.9879 63.8965 16.778C64.023 16.5682 64.0987 16.3329 64.1236 16.072L66.5749 15.5713C66.6111 16.1833 66.499 16.7572 66.2384 17.2928C65.9807 17.8233 65.5874 18.2901 65.0584 18.6935C64.5324 19.0916 63.8824 19.3967 63.1083 19.6087Z" fill="#191919"/>
<path d="M72.6939 17.6827C72.2794 17.7384 71.9038 17.6397 71.5672 17.3867C71.2342 17.1288 71.0398 16.7927 70.984 16.3782C70.9289 15.9679 71.0281 15.5966 71.2817 15.2641C71.5396 14.9311 71.8757 14.7367 72.2902 14.6809C72.6921 14.6269 73.0635 14.7261 73.4043 14.9786C73.7451 15.2312 73.9432 15.5625 73.9983 15.9728C74.0355 16.2491 73.9984 16.512 73.887 16.7614C73.7793 17.006 73.6216 17.2127 73.4141 17.3812C73.2061 17.5456 72.966 17.6461 72.6939 17.6827Z" fill="#191919"/>
<path d="M83.7914 17.0436L85.5211 4.18259L94.0365 5.3278L93.735 7.56968L87.9387 6.79016L87.5266 9.85469L92.7576 10.5582L92.4561 12.8001L87.2251 12.0966L86.5106 17.4093L83.7914 17.0436Z" fill="#191919"/>
<path d="M95.1737 19.132C94.5748 18.9679 94.0695 18.7179 93.6579 18.3817C93.2474 18.0415 92.9621 17.6283 92.8018 17.142C92.6468 16.6528 92.6541 16.0986 92.8237 15.4793C92.9665 14.9578 93.1823 14.5461 93.4708 14.2441C93.7594 13.9421 94.0983 13.7283 94.4874 13.6028C94.8766 13.4773 95.296 13.417 95.7458 13.4219C96.1996 13.428 96.6649 13.4722 97.1417 13.5547C97.7032 13.6472 98.1577 13.7147 98.5052 13.7573C98.8538 13.7959 99.1174 13.7849 99.296 13.7243C99.4747 13.6638 99.5913 13.5337 99.646 13.334L99.6561 13.2974C99.7621 12.9103 99.7219 12.5774 99.5355 12.2986C99.3531 12.0209 99.0399 11.8212 98.5959 11.6996C98.1273 11.5712 97.7261 11.573 97.3921 11.7049C97.0593 11.8327 96.8056 12.0392 96.6312 12.3242L94.277 11.4691C94.5554 10.9322 94.9308 10.5051 95.4032 10.1878C95.8767 9.86633 96.4272 9.67114 97.0549 9.60219C97.6878 9.53028 98.3791 9.597 99.1287 9.80235C99.6502 9.9452 100.133 10.143 100.576 10.3958C101.023 10.6497 101.397 10.9558 101.697 11.314C102.002 11.6734 102.207 12.0843 102.312 12.5468C102.419 13.0052 102.396 13.5135 102.243 14.0716L100.508 20.4028L98.0395 19.7265L98.3961 18.4248L98.3227 18.4047C98.0916 18.6568 97.8191 18.8602 97.5051 19.0151C97.1923 19.1659 96.8413 19.2559 96.4523 19.2851C96.0643 19.3103 95.6381 19.2592 95.1737 19.132ZM96.4114 17.5395C96.7944 17.6444 97.1532 17.6617 97.4878 17.5913C97.8236 17.5169 98.1107 17.3721 98.3491 17.1571C98.5876 16.9422 98.752 16.6697 98.8424 16.3397L99.1153 15.3435C99.0193 15.3742 98.8939 15.3924 98.739 15.3981C98.5893 15.4009 98.4219 15.3967 98.2366 15.3853C98.0525 15.3699 97.869 15.3525 97.686 15.333C97.5041 15.3095 97.339 15.2884 97.1909 15.2697C96.873 15.2308 96.5866 15.229 96.3317 15.2643C96.0768 15.2996 95.8633 15.3834 95.6912 15.5159C95.5203 15.6442 95.4013 15.8306 95.3344 16.0751C95.2373 16.4295 95.2914 16.7356 95.4967 16.9933C95.7073 17.2481 96.0122 17.4302 96.4114 17.5395Z" fill="#191919"/>
<path d="M111.005 17.2742L108.671 16.4495C108.714 16.2385 108.705 16.0281 108.642 15.8181C108.582 15.6042 108.466 15.4061 108.296 15.2237C108.131 15.0391 107.904 14.8857 107.617 14.7637C107.232 14.6004 106.872 14.5444 106.539 14.5956C106.206 14.6429 105.984 14.8008 105.87 15.0691C105.779 15.283 105.788 15.5001 105.896 15.7205C106.005 15.9408 106.248 16.1839 106.626 16.4498L108.11 17.4642C108.905 18.0125 109.432 18.5756 109.692 19.1537C109.951 19.7318 109.944 20.3436 109.671 20.9892C109.422 21.5764 109.03 22.0184 108.496 22.3149C107.966 22.6132 107.348 22.7597 106.644 22.7547C105.945 22.7474 105.207 22.5788 104.429 22.249C103.243 21.746 102.402 21.0983 101.908 20.306C101.419 19.5113 101.296 18.6607 101.538 17.754L104.036 18.6621C103.957 19.0551 104.019 19.4071 104.222 19.718C104.427 20.0251 104.751 20.2726 105.194 20.4606C105.63 20.6453 106.015 20.7101 106.35 20.655C106.691 20.5977 106.921 20.4357 107.038 20.169C107.13 19.9417 107.113 19.7166 106.987 19.4936C106.863 19.2666 106.623 19.0318 106.268 18.7891L104.847 17.822C104.046 17.2759 103.523 16.6963 103.279 16.0833C103.038 15.4718 103.059 14.8317 103.343 14.1628C103.587 13.5872 103.953 13.1573 104.44 12.8731C104.932 12.5905 105.509 12.4569 106.173 12.4721C106.84 12.4889 107.557 12.6598 108.323 12.9847C109.455 13.4645 110.244 14.0814 110.69 14.8351C111.141 15.5905 111.246 16.4035 111.005 17.2742Z" fill="#191919"/>
<path d="M119.462 18.9664L118.429 20.7109L113.386 17.724L114.419 15.9794L119.462 18.9664ZM116.752 14.6513L119.075 16.0269L114.451 23.8338C114.324 24.0483 114.257 24.2348 114.252 24.3935C114.248 24.5486 114.291 24.6842 114.379 24.8003C114.471 24.9186 114.595 25.024 114.751 25.1166C114.86 25.1812 114.975 25.2367 115.094 25.2831C115.216 25.3258 115.31 25.359 115.374 25.3825L114.716 27.3271C114.578 27.2946 114.39 27.2395 114.151 27.1619C113.91 27.0879 113.636 26.967 113.327 26.7993C112.755 26.4895 112.308 26.1244 111.988 25.7039C111.671 25.2855 111.503 24.8275 111.483 24.3299C111.464 23.8323 111.619 23.3102 111.947 22.7635L116.752 14.6513Z" fill="#191919"/>
<path d="M119.668 31.4059C119.34 31.1467 119.15 30.8081 119.098 30.3902C119.052 29.9716 119.158 29.5981 119.417 29.2699C119.674 28.9451 120.01 28.7582 120.425 28.7094C120.844 28.6632 121.217 28.7697 121.545 29.0289C121.864 29.2802 122.05 29.6162 122.106 30.0367C122.161 30.4573 122.061 30.83 121.804 31.1549C121.631 31.3737 121.417 31.5297 121.16 31.623C120.909 31.7157 120.651 31.746 120.386 31.714C120.123 31.6788 119.884 31.576 119.668 31.4059Z" fill="#191919"/>
<path d="M137.278 37.0681C137.66 36.724 137.85 36.3134 137.85 35.836C137.85 35.3587 137.654 34.8547 137.263 34.3242C136.998 33.9637 136.723 33.6969 136.438 33.5238C136.156 33.3483 135.878 33.2593 135.603 33.257C135.331 33.258 135.083 33.3413 134.859 33.5066C134.667 33.6376 134.532 33.797 134.455 33.9848C134.381 34.1759 134.349 34.3856 134.36 34.6138C134.374 34.8395 134.418 35.0803 134.491 35.336C134.567 35.5893 134.664 35.8486 134.781 36.1141L135.248 37.2181C135.482 37.749 135.654 38.2675 135.764 38.7737C135.875 39.2798 135.909 39.7638 135.866 40.2256C135.823 40.6874 135.69 41.1188 135.466 41.5199C135.245 41.9244 134.918 42.2887 134.485 42.6129C133.843 43.0805 133.168 43.3257 132.461 43.3484C131.76 43.3721 131.057 43.1764 130.352 42.7615C129.654 42.3475 128.991 41.7154 128.365 40.8652C127.743 40.0218 127.331 39.192 127.129 38.3758C126.928 37.5631 126.953 36.7948 127.201 36.0712C127.456 35.3485 127.953 34.7017 128.692 34.131L130.267 36.2684C129.934 36.5502 129.715 36.8661 129.611 37.2158C129.513 37.5664 129.514 37.9352 129.615 38.3222C129.723 38.7101 129.917 39.0944 130.198 39.4753C130.473 39.8494 130.767 40.1341 131.079 40.3294C131.393 40.5281 131.703 40.6325 132.01 40.6427C132.317 40.6529 132.596 40.5653 132.847 40.3799C133.082 40.207 133.228 39.9919 133.285 39.7347C133.345 39.4809 133.333 39.1801 133.25 38.8321C133.169 38.4876 133.034 38.091 132.845 37.6425L132.293 36.2944C131.858 35.2558 131.681 34.3135 131.76 33.4676C131.84 32.6217 132.267 31.9161 133.042 31.3507C133.672 30.8812 134.349 30.6424 135.072 30.6342C135.798 30.6294 136.514 30.8285 137.22 31.2316C137.926 31.6347 138.56 32.2171 139.121 32.9789C139.693 33.7543 140.059 34.5288 140.219 35.3023C140.383 36.0793 140.347 36.8035 140.112 37.4749C139.878 38.1462 139.453 38.7163 138.838 39.185L137.278 37.0681Z" fill="#191919"/>
<path d="M133.689 46.9336L142.224 42.2563L143.522 44.6234L134.987 49.3007L133.689 46.9336ZM143.976 42.8425C143.783 42.4906 143.735 42.1247 143.83 41.7449C143.931 41.3668 144.146 41.0874 144.476 40.9067C144.802 40.7281 145.15 40.6989 145.519 40.8192C145.894 40.9412 146.178 41.1781 146.371 41.53C146.564 41.8819 146.61 42.247 146.509 42.6251C146.414 43.0049 146.203 43.2841 145.877 43.4628C145.547 43.6434 145.195 43.6728 144.82 43.5508C144.45 43.4305 144.169 43.1944 143.976 42.8425Z" fill="#191919"/>
<path d="M136.286 51.7856L145.368 48.2877L146.293 50.6883L144.69 51.3055L144.731 51.4119C145.336 51.3961 145.878 51.5498 146.355 51.8729C146.833 52.196 147.19 52.665 147.427 53.2799C147.667 53.9028 147.715 54.4929 147.572 55.0504C147.433 55.6064 147.128 56.059 146.656 56.4083L146.692 56.5029C147.284 56.4878 147.829 56.6627 148.327 57.0276C148.831 57.3949 149.211 57.9117 149.467 58.5779C149.794 59.4254 149.789 60.2173 149.452 60.9535C149.121 61.6921 148.463 62.2512 147.477 62.6308L141.369 64.9833L140.401 62.4703L146.012 60.3091C146.517 60.1148 146.844 59.835 146.993 59.4698C147.142 59.1046 147.139 58.7209 146.984 58.3188C146.808 57.8616 146.525 57.561 146.134 57.4171C145.748 57.2717 145.318 57.2901 144.845 57.4723L139.299 59.6084L138.358 57.1664L144.023 54.9847C144.468 54.8132 144.774 54.5484 144.939 54.1905C145.106 53.8364 145.11 53.4525 144.951 53.0386C144.843 52.7587 144.675 52.5338 144.446 52.3637C144.223 52.1961 143.961 52.0958 143.658 52.0629C143.36 52.0285 143.043 52.0758 142.708 52.2048L137.256 54.3045L136.286 51.7856Z" fill="#191919"/>
<path d="M136.778 67.8797L149.796 64.7774L150.413 67.3662L148.823 67.7451L148.851 67.8622C149.133 67.9166 149.431 68.0213 149.746 68.1764C150.066 68.3347 150.357 68.5694 150.618 68.8807C150.884 69.1951 151.08 69.6174 151.206 70.1474C151.371 70.8378 151.342 71.5178 151.119 72.1874C150.901 72.8561 150.471 73.4513 149.831 73.9729C149.196 74.4936 148.335 74.8832 147.25 75.1417C146.194 75.3933 145.262 75.4353 144.453 75.2676C143.65 75.103 142.992 74.7735 142.479 74.2791C141.971 73.7879 141.631 73.1827 141.46 72.4636C141.338 71.954 141.319 71.5005 141.403 71.1028C141.487 70.7093 141.629 70.3692 141.83 70.0824C142.035 69.7947 142.255 69.56 142.49 69.3781L142.471 69.298L137.404 70.5054L136.778 67.8797ZM145.675 68.4758C145.112 68.6099 144.639 68.805 144.258 69.0611C143.876 69.3171 143.603 69.6209 143.439 69.9726C143.279 70.3233 143.25 70.7103 143.351 71.1335C143.453 71.5609 143.656 71.8946 143.961 72.1346C144.27 72.3737 144.652 72.5193 145.107 72.5714C145.568 72.6267 146.073 72.5888 146.624 72.4575C147.17 72.3273 147.633 72.1367 148.012 71.8858C148.39 71.6348 148.662 71.3335 148.825 70.9818C148.989 70.6302 149.02 70.2386 148.917 69.8071C148.815 69.3798 148.616 69.0451 148.319 68.8031C148.024 68.5652 147.65 68.4176 147.198 68.3604C146.745 68.3032 146.238 68.3416 145.675 68.4758Z" fill="#191919"/>
<path d="M155.671 78.6794L142.76 79.9783L142.49 77.2926L155.401 75.9937L155.671 78.6794Z" fill="#191919"/>
<path d="M142.622 85.6148C142.655 84.6143 142.887 83.7598 143.316 83.0514C143.75 82.3474 144.347 81.8136 145.107 81.4502C145.871 81.0869 146.767 80.9224 147.793 80.9567C148.793 80.9902 149.665 81.2138 150.407 81.6274C151.15 82.0411 151.721 82.6075 152.119 83.3267C152.518 84.0501 152.701 84.8888 152.669 85.843C152.648 86.4847 152.524 87.0786 152.299 87.6248C152.078 88.1753 151.756 88.6506 151.332 89.0506C150.909 89.4549 150.383 89.7628 149.754 89.9742C149.13 90.1858 148.404 90.2778 147.577 90.2501L146.836 90.2253L147.111 82.0117L148.782 82.0676L148.593 87.7418C148.981 87.7548 149.328 87.6818 149.633 87.523C149.939 87.3641 150.181 87.1376 150.36 86.8435C150.543 86.5538 150.641 86.2126 150.654 85.82C150.668 85.4105 150.585 85.0442 150.405 84.7212C150.23 84.4026 149.987 84.1493 149.676 83.9614C149.37 83.7737 149.025 83.6712 148.641 83.6542L147.051 83.601C146.57 83.5849 146.151 83.6597 145.795 83.8253C145.438 83.9951 145.159 84.2415 144.958 84.5645C144.757 84.8874 144.649 85.2748 144.634 85.7265C144.624 86.0262 144.657 86.3021 144.733 86.554C144.81 86.8059 144.929 87.0233 145.092 87.2063C145.255 87.3893 145.457 87.5313 145.699 87.6324L145.451 90.122C144.856 89.9753 144.341 89.6981 143.907 89.2905C143.476 88.8873 143.147 88.3733 142.918 87.7486C142.694 87.1282 142.595 86.417 142.622 85.6148Z" fill="#191919"/>
<path d="M141.623 94.0684C141.693 93.656 141.899 93.3266 142.24 93.08C142.585 92.8383 142.964 92.7522 143.376 92.8218C143.784 92.8907 144.109 93.0955 144.352 93.4362C144.594 93.7811 144.68 94.1598 144.61 94.5722C144.543 94.972 144.338 95.2973 143.996 95.5481C143.653 95.7988 143.278 95.8897 142.87 95.8209C142.595 95.7745 142.355 95.6612 142.15 95.4809C141.948 95.3055 141.797 95.0937 141.698 94.8456C141.603 94.5982 141.578 94.3391 141.623 94.0684Z" fill="#191919"/>
<path d="M138.691 102.735L150.462 108.197L148.307 112.841C147.895 113.73 147.383 114.415 146.774 114.896C146.166 115.382 145.497 115.656 144.765 115.717C144.036 115.784 143.282 115.637 142.504 115.276C141.723 114.913 141.128 114.432 140.721 113.834C140.319 113.237 140.116 112.549 140.114 111.771C140.11 110.996 140.318 110.156 140.738 109.252L142.181 106.142L144.181 107.071L142.925 109.778C142.704 110.253 142.586 110.678 142.571 111.052C142.555 111.427 142.642 111.752 142.832 112.026C143.019 112.304 143.307 112.533 143.694 112.712C144.085 112.894 144.451 112.968 144.792 112.935C145.131 112.906 145.443 112.765 145.729 112.511C146.017 112.263 146.271 111.899 146.494 111.42L147.273 109.742L137.536 105.223L138.691 102.735ZM141.098 111.577L134.384 112.017L135.658 109.27L142.343 108.893L141.098 111.577Z" fill="#191919"/>
<path d="M131.721 115.891C132.26 115.047 132.894 114.43 133.625 114.039C134.356 113.655 135.142 113.5 135.981 113.574C136.824 113.651 137.678 113.966 138.543 114.518C139.387 115.057 140.023 115.694 140.452 116.428C140.88 117.162 141.082 117.941 141.059 118.763C141.033 119.588 140.763 120.403 140.249 121.208C139.904 121.749 139.495 122.197 139.023 122.552C138.552 122.913 138.032 123.158 137.464 123.286C136.894 123.418 136.284 123.415 135.636 123.277C134.991 123.141 134.32 122.85 133.622 122.404L132.997 122.006L137.419 115.078L138.829 115.979L135.774 120.764C136.102 120.973 136.437 121.087 136.781 121.106C137.125 121.125 137.449 121.054 137.752 120.892C138.057 120.736 138.316 120.492 138.527 120.161C138.748 119.816 138.863 119.458 138.873 119.089C138.885 118.725 138.805 118.384 138.633 118.064C138.465 117.746 138.22 117.482 137.898 117.271L136.558 116.416C136.152 116.157 135.754 116.007 135.363 115.968C134.969 115.933 134.604 116.003 134.266 116.178C133.929 116.354 133.639 116.632 133.395 117.013C133.234 117.266 133.122 117.52 133.059 117.775C132.996 118.031 132.988 118.279 133.035 118.519C133.082 118.76 133.184 118.985 133.34 119.195L131.858 121.211C131.421 120.781 131.119 120.28 130.953 119.708C130.788 119.142 130.767 118.532 130.888 117.878C131.011 117.23 131.289 116.568 131.721 115.891Z" fill="#191919"/>
<path d="M135.067 131.991L125.157 123.613L126.9 121.551L136.81 129.93L135.067 131.991Z" fill="#191919"/>
<path d="M122.367 126.34L128.896 133.559L126.894 135.369L120.366 128.151L122.367 126.34ZM128.732 135.399C129.029 135.13 129.374 134.997 129.766 135.002C130.157 135.013 130.479 135.157 130.731 135.436C130.98 135.712 131.089 136.043 131.058 136.431C131.026 136.824 130.861 137.155 130.564 137.424C130.266 137.693 129.922 137.823 129.53 137.812C129.139 137.807 128.818 137.667 128.569 137.391C128.317 137.113 128.207 136.776 128.238 136.383C128.27 135.996 128.434 135.668 128.732 135.399Z" fill="#191919"/>
<path d="M116.635 130.78C117.147 130.429 117.664 130.205 118.186 130.107C118.711 130.014 119.211 130.062 119.686 130.254C120.159 130.451 120.578 130.815 120.941 131.344C121.247 131.79 121.422 132.22 121.467 132.636C121.511 133.051 121.455 133.448 121.3 133.826C121.145 134.204 120.92 134.564 120.626 134.904C120.328 135.247 119.994 135.573 119.623 135.884C119.19 136.253 118.845 136.557 118.588 136.795C118.334 137.036 118.172 137.244 118.103 137.42C118.034 137.595 118.058 137.768 118.175 137.939L118.196 137.97C118.423 138.301 118.704 138.486 119.037 138.523C119.367 138.563 119.721 138.453 120.101 138.192C120.501 137.917 120.759 137.61 120.874 137.27C120.991 136.933 120.997 136.606 120.892 136.289L123.065 135.043C123.296 135.602 123.379 136.165 123.317 136.73C123.256 137.299 123.05 137.846 122.697 138.37C122.344 138.9 121.847 139.384 121.206 139.824C120.76 140.13 120.297 140.371 119.818 140.546C119.336 140.724 118.861 140.812 118.393 140.81C117.922 140.81 117.476 140.701 117.055 140.483C116.636 140.269 116.263 139.923 115.935 139.446L112.22 134.034L114.33 132.585L115.094 133.698L115.157 133.655C115.114 133.316 115.134 132.976 115.219 132.636C115.305 132.3 115.463 131.974 115.692 131.658C115.923 131.346 116.238 131.053 116.635 130.78ZM117.052 132.754C116.724 132.979 116.479 133.241 116.317 133.542C116.157 133.847 116.082 134.16 116.093 134.48C116.103 134.801 116.205 135.103 116.398 135.385L116.983 136.236C117.021 136.143 117.088 136.036 117.184 135.914C117.279 135.798 117.39 135.673 117.518 135.538C117.649 135.408 117.781 135.279 117.914 135.152C118.049 135.028 118.172 134.916 118.282 134.815C118.517 134.597 118.703 134.379 118.841 134.162C118.978 133.944 119.052 133.727 119.062 133.51C119.074 133.297 119.009 133.086 118.865 132.877C118.657 132.574 118.389 132.418 118.059 132.408C117.729 132.404 117.393 132.52 117.052 132.754Z" fill="#191919"/>
<path d="M111.386 134.479L117.239 146.061L114.829 147.279L112.629 142.924L112.556 142.961C112.568 143.249 112.535 143.563 112.458 143.905C112.378 144.253 112.217 144.59 111.974 144.916C111.73 145.248 111.365 145.537 110.879 145.782C110.245 146.102 109.577 146.232 108.874 146.171C108.173 146.113 107.494 145.834 106.839 145.332C106.185 144.834 105.606 144.088 105.103 143.092C104.614 142.123 104.357 141.226 104.333 140.401C104.306 139.581 104.474 138.864 104.836 138.251C105.196 137.643 105.706 137.172 106.366 136.839C106.834 136.602 107.27 136.479 107.677 136.467C108.079 136.458 108.443 136.518 108.768 136.647C109.096 136.78 109.375 136.939 109.606 137.125L109.714 137.071L109.011 135.68L111.386 134.479ZM111.222 140.014C110.961 139.498 110.662 139.084 110.325 138.771C109.987 138.459 109.628 138.264 109.248 138.187C108.87 138.113 108.487 138.174 108.098 138.37C107.706 138.568 107.429 138.843 107.266 139.195C107.105 139.551 107.052 139.957 107.107 140.412C107.16 140.872 107.314 141.355 107.569 141.86C107.823 142.362 108.115 142.768 108.447 143.078C108.779 143.388 109.135 143.582 109.515 143.66C109.895 143.738 110.283 143.677 110.679 143.477C111.071 143.278 111.35 143.007 111.517 142.663C111.68 142.32 111.737 141.922 111.688 141.469C111.639 141.016 111.483 140.531 111.222 140.014Z" fill="#191919"/>
<path d="M102.596 152.342L98.3397 140.083L100.89 139.198L105.146 151.457L102.596 152.342Z" fill="#191919"/>
<path d="M92.8246 141.256C93.8057 141.057 94.6906 141.084 95.4792 141.337C96.2646 141.596 96.9221 142.053 97.4519 142.708C97.9825 143.367 98.35 144.2 98.5545 145.206C98.7539 146.187 98.7385 147.087 98.5083 147.905C98.278 148.723 97.8593 149.41 97.2522 149.964C96.6409 150.52 95.8674 150.892 94.9319 151.083C94.3027 151.21 93.6963 151.228 93.1128 151.135C92.526 151.048 91.989 150.844 91.5017 150.525C91.0102 150.207 90.5888 149.767 90.2375 149.205C89.8869 148.647 89.6292 147.962 89.4643 147.15L89.3166 146.424L97.3702 144.787L97.7034 146.426L92.1398 147.557C92.2172 147.938 92.3686 148.259 92.5939 148.519C92.8192 148.779 93.0957 148.962 93.4232 149.068C93.7475 149.179 94.1021 149.195 94.4871 149.117C94.8886 149.035 95.2257 148.87 95.4983 148.62C95.7676 148.376 95.9576 148.081 96.0684 147.735C96.18 147.393 96.1996 147.034 96.1271 146.656L95.8104 145.098C95.7144 144.626 95.5446 144.236 95.3009 143.927C95.0531 143.62 94.7488 143.406 94.3881 143.285C94.0273 143.165 93.6255 143.149 93.1825 143.239C92.8886 143.299 92.628 143.395 92.4006 143.528C92.1732 143.66 91.9893 143.827 91.8491 144.028C91.7089 144.229 91.6177 144.458 91.5754 144.717L89.0961 145.053C89.1008 144.44 89.2511 143.875 89.5469 143.358C89.8394 142.846 90.263 142.406 90.8177 142.039C91.3692 141.677 92.0381 141.416 92.8246 141.256Z" fill="#191919"/>
<path d="M83.1291 142.537C83.5464 142.51 83.9145 142.633 84.2335 142.908C84.5486 143.188 84.7201 143.536 84.748 143.953C84.7757 144.366 84.6518 144.73 84.3766 145.045C84.0971 145.36 83.7487 145.532 83.3314 145.559C82.9268 145.587 82.5629 145.463 82.2397 145.188C81.9164 144.913 81.741 144.569 81.7134 144.156C81.6947 143.878 81.7493 143.618 81.8771 143.377C82.001 143.14 82.172 142.944 82.3903 142.79C82.6089 142.64 82.8552 142.556 83.1291 142.537Z" fill="#191919"/>
</svg>
