<svg width="51" height="222" viewBox="0 0 51 222" fill="none" xmlns="http://www.w3.org/2000/svg">
<path d="M2.76758 209.639L20.6833 209.812" stroke="#0A102F" stroke-width="5.07768" stroke-miterlimit="10" stroke-linecap="round"/>
<path d="M11.8135 200.768L11.6406 218.683" stroke="#0A102F" stroke-width="5.07768" stroke-miterlimit="10" stroke-linecap="round"/>
<path d="M3.04102 181.351L20.9567 181.523" stroke="#0A102F" stroke-width="5.07768" stroke-miterlimit="10" stroke-linecap="round"/>
<path d="M12.087 172.479L11.9141 190.395" stroke="#0A102F" stroke-width="5.07768" stroke-miterlimit="10" stroke-linecap="round"/>
<path d="M3.31445 153.062L21.2302 153.234" stroke="#0A102F" stroke-width="5.07768" stroke-miterlimit="10" stroke-linecap="round"/>
<path d="M12.3584 144.19L12.1855 162.105" stroke="#0A102F" stroke-width="5.07768" stroke-miterlimit="10" stroke-linecap="round"/>
<path d="M3.58789 124.774L21.5036 124.947" stroke="#0A102F" stroke-width="5.07768" stroke-miterlimit="10" stroke-linecap="round"/>
<path d="M12.6319 115.902L12.459 133.818" stroke="#0A102F" stroke-width="5.07768" stroke-miterlimit="10" stroke-linecap="round"/>
<path d="M3.86133 96.4844L21.777 96.6573" stroke="#0A102F" stroke-width="5.07768" stroke-miterlimit="10" stroke-linecap="round"/>
<path d="M12.9034 87.6132L12.7305 105.529" stroke="#0A102F" stroke-width="5.07768" stroke-miterlimit="10" stroke-linecap="round"/>
<path d="M4.13086 68.1953L22.0466 68.3682" stroke="#0A102F" stroke-width="5.07768" stroke-miterlimit="10" stroke-linecap="round"/>
<path d="M13.1768 59.3247L13.0039 77.2402" stroke="#0A102F" stroke-width="5.07768" stroke-miterlimit="10" stroke-linecap="round"/>
<path d="M4.4082 39.9077L22.3239 40.0806" stroke="#0A102F" stroke-width="5.07768" stroke-miterlimit="10" stroke-linecap="round"/>
<path d="M13.4522 31.0366L13.2793 48.9521" stroke="#0A102F" stroke-width="5.07768" stroke-miterlimit="10" stroke-linecap="round"/>
<path d="M4.67773 11.6187L22.5934 11.7916" stroke="#0A102F" stroke-width="5.07768" stroke-miterlimit="10" stroke-linecap="round"/>
<path d="M13.7237 2.74752L13.5508 20.6631" stroke="#0A102F" stroke-width="5.07768" stroke-miterlimit="10" stroke-linecap="round"/>
<path d="M28.2637 209.885L46.1795 210.058" stroke="#0A102F" stroke-width="5.07768" stroke-miterlimit="10" stroke-linecap="round"/>
<path d="M37.3096 201.014L37.1367 218.929" stroke="#0A102F" stroke-width="5.07768" stroke-miterlimit="10" stroke-linecap="round"/>
<path d="M28.5371 181.596L46.4529 181.769" stroke="#0A102F" stroke-width="5.07768" stroke-miterlimit="10" stroke-linecap="round"/>
<path d="M37.5811 172.725L37.4082 190.641" stroke="#0A102F" stroke-width="5.07768" stroke-miterlimit="10" stroke-linecap="round"/>
<path d="M28.8105 153.308L46.7263 153.481" stroke="#0A102F" stroke-width="5.07768" stroke-miterlimit="10" stroke-linecap="round"/>
<path d="M37.8545 144.437L37.6816 162.353" stroke="#0A102F" stroke-width="5.07768" stroke-miterlimit="10" stroke-linecap="round"/>
<path d="M29.082 125.019L46.9978 125.192" stroke="#0A102F" stroke-width="5.07768" stroke-miterlimit="10" stroke-linecap="round"/>
<path d="M38.126 116.148L37.9531 134.063" stroke="#0A102F" stroke-width="5.07768" stroke-miterlimit="10" stroke-linecap="round"/>
<path d="M29.3555 96.731L47.2713 96.9039" stroke="#0A102F" stroke-width="5.07768" stroke-miterlimit="10" stroke-linecap="round"/>
<path d="M38.4014 87.8603L38.2285 105.776" stroke="#0A102F" stroke-width="5.07768" stroke-miterlimit="10" stroke-linecap="round"/>
<path d="M29.6289 68.4419L47.5447 68.6148" stroke="#0A102F" stroke-width="5.07768" stroke-miterlimit="10" stroke-linecap="round"/>
<path d="M38.6749 59.5713L38.502 77.4868" stroke="#0A102F" stroke-width="5.07768" stroke-miterlimit="10" stroke-linecap="round"/>
<path d="M29.9023 40.1543L47.8181 40.3272" stroke="#0A102F" stroke-width="5.07768" stroke-miterlimit="10" stroke-linecap="round"/>
<path d="M38.9463 31.2822L38.7734 49.1978" stroke="#0A102F" stroke-width="5.07768" stroke-miterlimit="10" stroke-linecap="round"/>
<path d="M30.1758 11.8647L48.0916 12.0376" stroke="#0A102F" stroke-width="5.07768" stroke-miterlimit="10" stroke-linecap="round"/>
<path d="M39.2217 2.99362L39.0488 20.9092" stroke="#0A102F" stroke-width="5.07768" stroke-miterlimit="10" stroke-linecap="round"/>
</svg>
