<svg width="279" height="296" viewBox="0 0 279 296" fill="none" xmlns="http://www.w3.org/2000/svg">
<g opacity="0.5">
<path d="M49.8096 228.007C73.5112 267.69 126.34 282.325 165.781 262.114C189.919 249.744 208.141 227.003 213.711 200.457C219.234 174.134 212.628 145.603 196.427 124.137C208.344 113.333 209.369 97.0553 209.641 80.9523C241.212 82.0132 239.813 82.6878 241.349 81.3082C244.163 78.7826 245.913 76.3994 246.781 74.6777C247.202 74.1504 247.554 73.5606 247.754 72.8728C248.437 70.5086 247.423 68.0412 245.288 66.8743C155.699 17.8144 166.573 17.5891 57.0469 21.5288C53.4647 21.6556 51.4867 25.4361 52.8686 28.4332C53.0284 30.2542 53.2855 32.2634 53.3874 33.9967C53.4553 35.1496 54.122 36.1639 55.145 36.6998C61.0215 39.7783 66.8956 42.866 72.7783 45.9194C70.3504 50.9523 70.4723 53.523 62.0334 96.934C61.575 97.0173 61.1082 97.0772 60.6816 97.2535C55.8376 97.1985 51.8792 102.964 55.6478 108.269C52.3313 111.439 47.5382 125.231 44.3066 132.516C43.4609 134.422 42.7244 136.322 43.9392 138.018C35.6906 155.349 32.7521 173.181 34.6564 190.567C36.0894 203.841 41.4889 216.728 49.8096 228.007ZM92.5349 55.97C107.572 63.5369 122.731 70.8023 138.276 77.493C141.367 78.8147 171.974 79.7006 201.88 80.6928C200.718 90.6829 199.586 94.8239 197.331 106.737C195.956 113.786 190.247 119.819 181.869 121.461C166.058 124.37 149.152 123.765 134.112 120.241C113.042 115.334 93.7983 102.311 89.325 97.247C84.6957 92.3206 82.9793 85.7233 84.7294 79.6137C87.5774 69.8482 89.271 65.1926 92.5349 55.97ZM86.5517 102.695C88.6178 104.632 93.1964 107.815 95.5408 109.389C100.115 113.507 105.259 117.016 110.76 119.898C106.282 127.19 105.031 129.898 102.916 134.175C90.1741 129.079 78.3058 122.599 67.6604 114.905C72.9397 110.288 78.6223 106.32 86.5517 102.695ZM116.013 122.419C124.907 126.322 135.565 129.366 150.66 130.776C151.733 140.279 151.541 143.622 151.597 146.456C136.642 144.645 122.078 141.194 108.374 136.214C110.338 132.278 111.323 130.002 116.013 122.419ZM156.535 131.225C161.203 131.502 165.882 131.627 170.546 131.619C176.646 131.609 182.898 131.294 188.54 129.052C192.353 134.504 195.039 139.372 197.805 146.759C184.313 148.225 170.736 148.304 157.397 147.077C157.332 143.004 157.516 140.492 156.535 131.225ZM199.679 152.393C203.942 166.811 204.317 181.899 201.619 195.439C201.426 195.39 201.246 195.308 201.04 195.3C185.095 194.761 169.14 193.098 153.312 190.416C155.895 177.969 157.322 165.407 157.498 152.889C171.432 154.133 185.609 154.007 199.679 152.393ZM200.284 201.061C195.702 217.938 185.774 232.813 172.807 243.196C162.564 237.223 151.939 232.024 141.029 227.588C145.841 216.873 149.517 206.254 152.019 196.08C168.023 198.805 184.158 200.489 200.284 201.061ZM167.691 246.958C154.564 255.756 139.159 259.585 123.361 259.774C129.088 250.946 134.177 241.895 138.535 232.827C148.527 236.873 158.265 241.591 167.691 246.958ZM87.3204 53.3446C83.0214 65.1983 80.9759 71.8025 79.1678 78.0036C77.1869 84.91 78.5325 92.2207 82.6697 98.1746C78.1498 100.345 73.885 102.805 69.9926 105.602C70.599 102.915 69.9933 100.196 67.662 98.3308C76.2998 53.7043 76.0696 52.4684 77.9131 48.5663C81.0459 50.1681 84.1839 51.7604 87.3204 53.3446ZM52.193 134.555C52.433 134.496 52.6677 134.416 52.9256 134.43C52.1819 136.481 51.4271 138.682 51.9169 140.799C52.4064 142.915 54.7119 144.709 56.6573 143.791C58.0571 143.131 59.1187 141.257 60.601 141.649C62.0768 142.038 62.1332 144.243 63.2803 145.263C64.5356 146.377 66.671 145.552 67.5349 144.079C68.8403 141.853 68.2934 139.151 67.6127 121.958C77.6631 128.826 88.6846 134.675 100.418 139.393C95.0294 151.237 91.4044 162.247 88.9021 173.426C73.5462 167.855 58.5387 161.253 44.0173 153.685C46.0788 147.089 48.8029 140.641 52.193 134.555ZM105.844 141.433C120.705 146.883 135.09 150.34 151.698 152.29C151.557 164.662 150.18 177.093 147.609 189.412C129.604 186.067 111.8 181.352 94.4004 175.345C96.9588 163.591 100.868 152.301 105.844 141.433ZM146.301 195.073C143.865 204.876 140.303 215.112 135.644 225.452C121.226 219.975 106.33 215.87 91.1586 213.137C90.883 201.949 91.6124 191.094 93.324 181.138C110.852 187.144 128.366 191.73 146.301 195.073ZM133.144 230.688C128.445 240.421 122.906 250.155 116.592 259.587C109.704 259.12 103.061 257.817 96.852 255.656C93.8798 243.84 92.089 231.362 91.4119 219.064C105.635 221.703 119.604 225.576 133.144 230.688ZM90.3413 253.088C74.0444 245.798 57.7917 232.545 48.3353 214.976C60.8432 215.052 73.2857 216.057 85.5534 218.026C86.1203 229.775 87.7354 241.673 90.3413 253.088ZM240.184 70.681C203.622 68.3898 174.237 68.3025 143.42 65.6068C136.814 65.0153 143.161 66.1029 96.6183 44.1673L143.249 48.337C148.554 53.7948 157.331 53.1453 158.512 48.1058C159.997 41.8826 150.56 39.5802 143.776 41.6941C143.301 41.8436 142.923 42.1281 142.598 42.461C87.3093 37.5296 87.5024 37.2165 83.3123 37.8856C75.9812 34.4249 68.5607 30.899 61.02 27.1812C163.891 23.4968 155.307 24.1155 240.184 70.681ZM42.4236 159.367C57.1058 166.959 72.2771 173.56 87.7903 179.146C85.9527 189.394 85.1469 200.594 85.3649 212.143C72.2346 210.094 58.9162 209.094 45.5323 209.164C38.7885 193.399 38.5126 175.565 42.4236 159.367Z" fill="#F5EFEB"/>
<path d="M259.222 48.5695C257.866 47.7108 256.078 48.1131 255.228 49.4672C253.378 52.3877 251.191 55.1181 248.732 57.5772C247.602 58.7085 247.597 60.5422 248.729 61.6725C249.839 62.7909 251.677 62.8168 252.824 61.6758C255.59 58.9105 258.044 55.8451 260.12 52.5642C260.978 51.2119 260.576 49.4236 259.222 48.5695Z" fill="#F5EFEB"/>
<path d="M257.046 70.7743C257.997 71.004 257.301 70.8696 272.42 68.8374C274.006 68.6151 275.111 67.1556 274.892 65.5707C274.671 63.9812 273.198 62.8848 271.625 63.0988L257.324 65.0928C254.187 65.5283 253.945 70.0257 257.046 70.7743Z" fill="#F5EFEB"/>
<path d="M268.177 86.0562C264.137 83.4634 259.812 81.2909 255.314 79.6C253.833 79.0331 252.149 79.7904 251.585 81.2912C251.022 82.7883 251.779 84.4566 253.276 85.0197C257.39 86.5711 261.351 88.5591 265.045 90.9324C266.468 91.8213 268.214 91.3535 269.049 90.0602C269.914 88.7134 269.52 86.9195 268.177 86.0562Z" fill="#F5EFEB"/>
</g>
</svg>
