<svg width="122" height="54" viewBox="0 0 122 54" fill="none" xmlns="http://www.w3.org/2000/svg">
<g clip-path="url(#clip0_4650_167)">
<path d="M8.56193 45.1883C7.5369 45.1883 6.63758 45.0625 5.86398 44.8111C5.10971 44.5597 4.46181 44.2599 3.92029 43.9118C3.3981 43.5443 2.98229 43.1865 2.67284 42.8384C2.3634 42.4903 2.15066 42.2292 2.03462 42.0551C1.70583 41.6297 1.50276 41.2622 1.4254 40.9528C1.34804 40.624 1.38672 40.2952 1.54144 39.9664C1.7155 39.6376 2.00561 39.2798 2.41175 38.893C2.81789 38.5449 3.19503 38.3612 3.54315 38.3418C3.91062 38.3031 4.26841 38.3902 4.61653 38.6029C4.96466 38.8157 5.30311 39.1154 5.63189 39.5022C6.09606 40.0631 6.55055 40.4596 6.99538 40.6917C7.45954 40.9044 7.94305 41.0108 8.44589 41.0108C9.08412 41.0108 9.62565 40.9334 10.0705 40.7787C10.5153 40.624 10.8537 40.3822 11.0858 40.0534C11.3179 39.7053 11.434 39.2702 11.434 38.748C11.434 38.3225 11.2696 37.984 10.9408 37.7326C10.6313 37.4618 10.2059 37.2298 9.66433 37.0364C9.14214 36.843 8.55226 36.6592 7.8947 36.4852C7.25647 36.2918 6.61824 36.0693 5.98002 35.8179C5.53519 35.6632 5.10971 35.4698 4.70356 35.2377C4.29742 35.0056 3.91062 34.7445 3.54315 34.4544C3.17569 34.1643 2.85657 33.8162 2.58581 33.4101C2.33439 33.0039 2.13132 32.5398 1.97659 32.0176C1.84121 31.4954 1.77352 30.8958 1.77352 30.2189C1.77352 29.0779 2.05396 28.0625 2.61482 27.1729C3.17569 26.2832 3.9493 25.587 4.93565 25.0841C5.94134 24.5619 7.09208 24.3008 8.38787 24.3008C9.25818 24.3008 10.0125 24.3782 10.6507 24.5329C11.3082 24.6876 11.8594 24.8714 12.3043 25.0841C12.7491 25.2969 13.0972 25.5096 13.3486 25.7223C13.6194 25.9157 13.8031 26.0705 13.8998 26.1865C14.4414 26.6893 14.7411 27.1245 14.7992 27.492C14.8572 27.8401 14.6541 28.3333 14.1899 28.9715C13.7064 29.6484 13.2229 30.0255 12.7394 30.1029C12.2753 30.1803 11.7434 30.0159 11.1439 29.6097C10.9118 29.397 10.6797 29.2036 10.4476 29.0295C10.2155 28.8555 9.93509 28.7201 9.60631 28.6234C9.29686 28.5073 8.88105 28.4493 8.35886 28.4493C8.04942 28.4493 7.75932 28.4977 7.48855 28.5944C7.21779 28.6717 6.98571 28.7878 6.79231 28.9425C6.5989 29.0972 6.44418 29.2906 6.32814 29.5227C6.2121 29.7354 6.15408 29.9772 6.15408 30.2479C6.15408 30.6928 6.29913 31.0506 6.58923 31.3213C6.89868 31.5921 7.29515 31.8145 7.77866 31.9886C8.2815 32.1433 8.8327 32.298 9.43224 32.4527C10.0511 32.5881 10.6797 32.7525 11.3179 32.9459C11.8981 33.1393 12.459 33.3811 13.0005 33.6712C13.542 33.9419 14.0255 34.29 14.451 34.7155C14.8765 35.141 15.215 35.6729 15.4664 36.3111C15.7371 36.9493 15.8725 37.7326 15.8725 38.6609C15.8725 39.8214 15.6501 40.8174 15.2053 41.649C14.7605 42.4806 14.1706 43.1575 13.4357 43.6797C12.7007 44.2019 11.9078 44.579 11.0568 44.8111C10.2059 45.0625 9.37422 45.1883 8.56193 45.1883Z" fill="white"/>
<path d="M29.7075 40.9528C30.307 41.4749 30.6262 41.9778 30.6648 42.4613C30.7035 42.9255 30.4424 43.467 29.8816 44.0859C29.4561 44.5307 29.0789 44.8208 28.7502 44.9562C28.4407 45.0916 28.1313 45.0916 27.8218 44.9562C27.5124 44.8401 27.1546 44.5984 26.7484 44.2309L22.1648 40.2275V42.7224C22.1648 43.1092 22.1261 43.467 22.0488 43.7958C21.9908 44.1245 21.807 44.3953 21.4976 44.6081C21.2075 44.8015 20.7046 44.8982 19.989 44.8982C19.2928 44.8982 18.79 44.8015 18.4805 44.6081C18.1711 44.3953 17.9777 44.1245 17.9003 43.7958C17.8423 43.4476 17.8133 43.0802 17.8133 42.6934V25.9544C17.8133 25.5676 17.852 25.2098 17.9293 24.881C18.0067 24.5523 18.2001 24.2912 18.5095 24.0978C18.819 23.885 19.3218 23.7786 20.0181 23.7786C20.7143 23.7786 21.2075 23.885 21.4976 24.0978C21.807 24.2912 21.9908 24.5619 22.0488 24.9101C22.1261 25.2388 22.1648 25.5966 22.1648 25.9834V34.7445L25.414 31.6114C25.8008 31.244 26.1586 30.9925 26.4874 30.8572C26.8355 30.7218 27.1739 30.7121 27.5027 30.8282C27.8315 30.9442 28.1796 31.2053 28.5471 31.6114C29.166 32.2883 29.4657 32.8395 29.4464 33.265C29.4271 33.6712 29.1273 34.1643 28.5471 34.7445L25.414 37.5876L29.7075 40.9528Z" fill="white"/>
<path d="M80.9063 44.8946C80.1133 44.8946 79.4074 44.8463 78.7885 44.7496C78.189 44.6722 77.6668 44.5175 77.2219 44.2854C76.7965 44.0533 76.4484 43.7342 76.1776 43.3281C75.9068 42.9219 75.7037 42.3997 75.5684 41.7615C75.4523 41.1039 75.3943 40.3013 75.3943 39.3536V25.9509C75.3943 25.5641 75.4233 25.2063 75.4813 24.8775C75.5587 24.5487 75.7521 24.2779 76.0615 24.0652C76.371 23.8525 76.8738 23.7461 77.5701 23.7461C78.2663 23.7461 78.7595 23.8525 79.0496 24.0652C79.3591 24.2779 79.5525 24.5487 79.6298 24.8775C79.7072 25.2063 79.7458 25.5641 79.7458 25.9509V39.1506C79.7458 39.46 79.7555 39.7211 79.7749 39.9338C79.8135 40.1272 79.8716 40.282 79.9489 40.398C80.0456 40.5141 80.1713 40.5914 80.326 40.6301C80.4808 40.6688 80.6839 40.6881 80.9353 40.6881C81.1674 40.6881 81.3994 40.7171 81.6315 40.7751C81.8829 40.8332 82.0957 41.0072 82.2697 41.2973C82.4438 41.5874 82.5308 42.0709 82.5308 42.7478C82.5308 43.4441 82.4438 43.9469 82.2697 44.2564C82.0957 44.5658 81.8829 44.7496 81.6315 44.8076C81.3994 44.8656 81.1577 44.8946 80.9063 44.8946Z" fill="white"/>
<path d="M86.3829 44.8946C85.6673 44.8946 85.1548 44.7979 84.8453 44.6045C84.5552 44.3918 84.3715 44.121 84.2941 43.7922C84.2361 43.4441 84.2071 43.0863 84.2071 42.7188V32.5942C84.2071 32.2074 84.2361 31.8496 84.2941 31.5209C84.3715 31.1921 84.5649 30.931 84.8743 30.7376C85.1838 30.5248 85.6963 30.4185 86.4119 30.4185C87.1081 30.4185 87.6013 30.5248 87.8914 30.7376C88.2009 30.9503 88.3846 31.2211 88.4426 31.5499C88.52 31.8787 88.5586 32.2461 88.5586 32.6523V42.7478C88.5586 43.1153 88.52 43.4731 88.4426 43.8212C88.3846 44.15 88.2009 44.4111 87.8914 44.6045C87.6013 44.7979 87.0985 44.8946 86.3829 44.8946ZM86.3829 28.3007C85.6479 28.3007 85.1258 28.1943 84.8163 27.9816C84.5069 27.7689 84.3135 27.4884 84.2361 27.1403C84.1781 26.7922 84.1491 26.4247 84.1491 26.0379C84.1491 25.6318 84.1878 25.2643 84.2651 24.9355C84.3425 24.5874 84.5359 24.3166 84.8453 24.1232C85.1548 23.9105 85.6769 23.8041 86.4119 23.8041C87.1275 23.8041 87.64 23.9105 87.9494 24.1232C88.2589 24.336 88.4426 24.6164 88.5006 24.9645C88.578 25.3127 88.6167 25.6801 88.6167 26.0669C88.6167 26.4537 88.578 26.8212 88.5006 27.1693C88.4426 27.5174 88.2589 27.7979 87.9494 28.0106C87.64 28.204 87.1178 28.3007 86.3829 28.3007Z" fill="white"/>
<path d="M93.2637 44.8656C92.5482 44.8656 92.0356 44.7689 91.7262 44.5755C91.4361 44.3628 91.2524 44.092 91.175 43.7632C91.117 43.4151 91.088 43.0573 91.088 42.6898V32.4782C91.088 32.1107 91.1267 31.7723 91.204 31.4628C91.2814 31.1341 91.4651 30.873 91.7552 30.6796C92.0647 30.4862 92.5772 30.3895 93.2928 30.3895C93.9116 30.3895 94.3661 30.4765 94.6562 30.6505C94.9464 30.8053 95.1301 30.9987 95.2074 31.2308C95.3041 31.4628 95.3525 31.6852 95.3525 31.898C95.3525 32.0914 95.3718 32.2268 95.4105 32.3041L95.2365 32.8553C95.2751 32.5652 95.4202 32.2751 95.6716 31.985C95.9424 31.6756 96.2711 31.4048 96.658 31.1727C97.0641 30.9213 97.4896 30.7279 97.9344 30.5925C98.3986 30.4571 98.8531 30.3895 99.2979 30.3895C100.226 30.3895 101.048 30.5635 101.764 30.9116C102.499 31.2404 103.118 31.7239 103.62 32.3622C104.123 33.0004 104.5 33.7547 104.752 34.625C105.023 35.4759 105.158 36.4139 105.158 37.439V42.7188C105.158 43.0863 105.119 43.4441 105.042 43.7922C104.984 44.121 104.8 44.3821 104.491 44.5755C104.201 44.7689 103.698 44.8656 102.982 44.8656C102.247 44.8656 101.725 44.7689 101.416 44.5755C101.126 44.3628 100.942 44.092 100.864 43.7632C100.787 43.4151 100.748 43.0573 100.748 42.6898V37.439C100.748 36.8588 100.652 36.3656 100.458 35.9594C100.265 35.5533 99.9748 35.2438 99.588 35.0311C99.2012 34.799 98.7274 34.683 98.1665 34.683C97.6056 34.683 97.1221 34.799 96.716 35.0311C96.3098 35.2632 95.9907 35.5823 95.7586 35.9884C95.5459 36.3946 95.4395 36.8781 95.4395 37.439V42.7188C95.4395 43.0863 95.4008 43.4441 95.3235 43.7922C95.2655 44.121 95.0817 44.3821 94.7723 44.5755C94.4822 44.7689 93.9793 44.8656 93.2637 44.8656Z" fill="white"/>
<path d="M119.416 40.9492C120.015 41.4714 120.335 41.9742 120.373 42.4577C120.412 42.9219 120.151 43.4634 119.59 44.0823C119.164 44.5271 118.787 44.8172 118.459 44.9526C118.149 45.088 117.84 45.088 117.53 44.9526C117.221 44.8366 116.863 44.5948 116.457 44.2274L111.873 40.2239V42.7188C111.873 43.1056 111.834 43.4634 111.757 43.7922C111.699 44.121 111.515 44.3918 111.206 44.6045C110.916 44.7979 110.413 44.8946 109.697 44.8946C109.001 44.8946 108.498 44.7979 108.189 44.6045C107.879 44.3918 107.686 44.121 107.609 43.7922C107.551 43.4441 107.522 43.0766 107.522 42.6898V25.9509C107.522 25.5641 107.56 25.2063 107.638 24.8775C107.715 24.5487 107.908 24.2876 108.218 24.0942C108.527 23.8815 109.03 23.7751 109.726 23.7751C110.423 23.7751 110.916 23.8815 111.206 24.0942C111.515 24.2876 111.699 24.5584 111.757 24.9065C111.834 25.2353 111.873 25.5931 111.873 25.9799V34.741L115.122 31.6079C115.509 31.2404 115.867 30.989 116.196 30.8536C116.544 30.7182 116.882 30.7086 117.211 30.8246C117.54 30.9407 117.888 31.2017 118.255 31.6079C118.874 32.2848 119.174 32.836 119.155 33.2615C119.135 33.6676 118.836 34.1608 118.255 34.741L115.122 37.584L119.416 40.9492Z" fill="white"/>
<path d="M63.438 6.9274L63.1654 7.00045L65.9557 13.9122L64.248 14.6023L61.3732 7.48068L31.0776 15.5983L30.5117 13.4863L62.8721 4.81538L63.438 6.9274Z" fill="white"/>
<path d="M56.6159 16.0354L54.6273 15.7301L52.9286 9.39031L41.412 12.4762L43.1749 19.0556L41.5789 20.2152L39.1563 11.1738L54.2309 7.13458L56.6159 16.0354Z" fill="white"/>
<path d="M55.6235 15.8813L53.0264 15.4822L45.3058 17.5065L42.378 19.6346L40.2852 11.8242L53.5817 8.26141L55.6235 15.8813Z" fill="white"/>
<path d="M63.5496 10.4068C64.1779 10.1532 64.8902 10.4395 65.1721 11.0473L65.1979 11.1069L66.2786 13.7843L63.93 14.7323L62.8495 12.0551L62.8266 11.994C62.6076 11.3608 62.9214 10.6605 63.5496 10.4068Z" fill="white"/>
<path d="M52.0879 33.0312C52.4667 32.3574 53.3294 32.1262 53.9944 32.5204L54.0602 32.5619L57.267 34.7098L57.3132 34.7421C57.7817 35.0843 57.9881 35.6853 57.8239 36.2459L56.4496 40.937C56.1676 41.8993 54.9953 42.2411 54.2416 41.6118L54.17 41.5478L50.6342 38.1724C50.1981 37.7559 50.0826 37.1047 50.3487 36.5636L52.0517 33.1L52.0879 33.0312ZM52.1503 37.0732L54.8946 39.6928L55.9614 36.052L53.4724 34.3851L52.1503 37.0732Z" fill="white"/>
<path d="M50.3465 30.6212C49.0517 25.7888 44.0845 22.9209 39.2521 24.2157C34.4196 25.5105 31.5517 30.4778 32.8466 35.3103C34.1415 40.1428 39.1087 43.0105 43.9412 41.7156C48.7736 40.4207 51.6413 35.4537 50.3465 30.6212ZM52.1257 30.1445C53.6837 35.9595 50.2329 41.9366 44.4179 43.4948C38.6028 45.0529 32.6256 41.6021 31.0674 35.7871C29.5092 29.972 32.9603 23.9947 38.7753 22.4365C44.5904 20.8784 50.5675 24.3295 52.1257 30.1445Z" fill="white"/>
<path d="M40.5574 29.0849C42.7008 28.5108 44.9035 29.7824 45.4779 31.9258C46.0522 34.0692 44.7806 36.2728 42.6373 36.8472C40.4938 37.4216 38.29 36.1491 37.7156 34.0057C37.1413 31.8622 38.4139 29.6593 40.5574 29.0849Z" fill="white"/>
<path d="M70.1723 34.1305C69.3577 41.0086 64.4633 47.027 57.3648 48.929C50.29 50.8246 43.0665 48.0848 38.9152 42.5725C39.7959 42.8196 40.716 42.9484 41.6532 42.9429C45.4644 46.8663 51.2294 48.6662 56.8881 47.15C62.5575 45.6309 66.6545 41.1755 67.9855 35.8589C68.8019 35.3825 69.5357 34.7991 70.1723 34.1305ZM34.703 19.7513C34.5048 18.7911 35.4971 18.1212 36.3031 18.4935L36.3817 18.5341L39.8436 20.4667C42.0285 18.0157 44.9292 16.1529 48.3377 15.2395C51.7946 14.3133 55.2872 14.4941 58.4397 15.5637L60.5294 12.0658L60.5781 11.9911C61.0897 11.2652 62.2842 11.3495 62.5927 12.2803L62.607 12.326C62.8671 13.2201 63.1311 14.5099 63.1969 15.9087C63.2176 16.3476 63.2143 16.8033 63.1876 17.2659C62.2587 17.2444 61.311 17.3502 60.3681 17.6028C60.0312 17.6931 59.7028 17.7996 59.3838 17.9212C56.1891 16.4454 52.4794 16.0366 48.8144 17.0186C45.1447 18.0019 42.1332 20.2152 40.1043 23.0962C39.7427 23.1515 39.3801 23.2256 39.0185 23.3225C38.1655 23.551 37.3684 23.8844 36.6365 24.3034C36.3992 23.9366 36.1843 23.5644 35.9939 23.1957C35.3516 21.9515 34.9353 20.7023 34.7135 19.798L34.703 19.7513ZM60.1711 16.2564C60.5761 16.4439 60.9733 16.6476 61.3625 16.8653C61.3711 16.5759 61.3704 16.2848 61.3569 15.9953C61.3328 15.4836 61.2783 14.9862 61.2066 14.5251L60.1711 16.2564ZM37.0259 21.0023C37.1943 21.4374 37.3949 21.8958 37.6299 22.3509C37.7391 22.5626 37.8578 22.7704 37.98 22.9749C38.1995 22.6165 38.4322 22.2657 38.677 21.9237L37.0259 21.0023Z" fill="white"/>
<path d="M70.1661 34.1474L70.1391 34.3598C69.8402 36.6304 69.0972 38.8204 67.9521 40.8037C66.8071 42.7868 65.2828 44.5253 63.4661 45.9193C61.6492 47.3134 59.5752 48.3358 57.3631 48.9286C55.1511 49.5213 52.8437 49.6729 50.5732 49.3739C48.3737 49.0844 46.2501 48.3774 44.3164 47.2925L44.1304 47.1867C42.2091 46.0774 40.5172 44.612 39.1459 42.8697L39.0144 42.6997C38.9826 42.6582 38.9516 42.6161 38.9202 42.5743C39.7994 42.82 40.7178 42.9468 41.6531 42.941C42.6558 43.9751 43.7982 44.8683 45.0506 45.5914L45.2175 45.6862C46.947 46.6565 48.8465 47.2883 50.8137 47.5473C52.8444 47.8147 54.908 47.6796 56.8864 47.1495C58.8648 46.6194 60.7195 45.7045 62.3445 44.4577C63.9693 43.2108 65.3325 41.6562 66.3566 39.8825C67.0851 38.6207 67.6303 37.2651 67.9814 35.857C68.7969 35.3811 69.531 34.7997 70.167 34.132C70.1665 34.137 70.1667 34.1423 70.1661 34.1474ZM53.6676 30.9107C53.9016 31.5046 54.1866 32.0662 54.519 32.5904L51.5703 33.3805C51.5962 32.7603 51.5621 32.1314 51.4679 31.5002L53.6676 30.9107Z" fill="white"/>
<path d="M71.6981 24.9005C70.4032 20.0681 65.4361 17.2002 60.6036 18.495C55.7711 19.7898 52.9033 24.7571 54.1981 29.5896C55.493 34.4221 60.4603 37.2898 65.2927 35.9949C70.1251 34.7 72.9929 29.733 71.6981 24.9005ZM73.4772 24.4238C75.0353 30.2388 71.5844 36.2159 65.7694 37.7741C59.9544 39.3322 53.9771 35.8814 52.419 30.0664C50.8608 24.2513 54.3118 18.274 60.1269 16.7158C65.942 15.1577 71.9191 18.6088 73.4772 24.4238Z" fill="white"/>
<path d="M61.9158 23.3606C64.0593 22.7863 66.2632 24.0586 66.8375 26.2021C67.4118 28.3455 66.1391 30.5485 63.9957 31.1229C61.8524 31.6971 59.6496 30.4254 59.0752 28.282C58.5009 26.1386 59.7725 23.935 61.9158 23.3606Z" fill="white"/>
</g>
<defs>
<clipPath id="clip0_4650_167">
<rect width="118.99" height="51.1414" fill="white" transform="translate(1.38281 1.42969)"/>
</clipPath>
</defs>
</svg>
