<svg width="241" height="133" viewBox="0 0 241 133" fill="none" xmlns="http://www.w3.org/2000/svg">
<path d="M15.4546 103.045C13.3872 103.045 11.5733 102.792 10.0129 102.285C8.49159 101.778 7.1848 101.173 6.09256 100.471C5.03932 99.7296 4.20064 99.0079 3.5765 98.3058C2.95236 97.6036 2.52326 97.077 2.28921 96.7259C1.62606 95.8677 1.21647 95.1266 1.06044 94.5024C0.904405 93.8393 0.982422 93.1761 1.29449 92.513C1.64557 91.8499 2.2307 91.1282 3.04988 90.348C3.86906 89.6459 4.62973 89.2753 5.33189 89.2363C6.07305 89.1583 6.79471 89.3338 7.49687 89.7629C8.19902 90.192 8.88168 90.7966 9.54482 91.5768C10.481 92.708 11.3977 93.5077 12.2949 93.9758C13.2311 94.4049 14.2064 94.6195 15.2206 94.6195C16.5079 94.6195 17.6001 94.4634 18.4973 94.1514C19.3945 93.8393 20.0772 93.3517 20.5453 92.6885C21.0134 91.9864 21.2474 91.1087 21.2474 90.0555C21.2474 89.1973 20.9158 88.5146 20.2527 88.0075C19.6286 87.4614 18.7704 86.9933 17.6781 86.6032C16.6249 86.2131 15.4351 85.8425 14.1088 85.4915C12.8215 85.1014 11.5343 84.6528 10.247 84.1457C9.34978 83.8336 8.49159 83.4435 7.67241 82.9754C6.85323 82.5073 6.07305 81.9807 5.33189 81.3956C4.59072 80.8104 3.94708 80.1083 3.40096 79.2891C2.89385 78.4699 2.48426 77.5337 2.17219 76.4805C1.89913 75.4273 1.76259 74.218 1.76259 72.8527C1.76259 70.5512 2.32822 68.5033 3.45947 66.7089C4.59072 64.9145 6.15107 63.5102 8.14051 62.4959C10.169 61.4427 12.49 60.9161 15.1036 60.9161C16.8589 60.9161 18.3803 61.0721 19.6676 61.3842C20.9939 61.6963 22.1056 62.0669 23.0028 62.4959C23.9 62.925 24.6022 63.3541 25.1093 63.7832C25.6554 64.1733 26.026 64.4854 26.221 64.7194C27.3133 65.7337 27.9179 66.6113 28.0349 67.3525C28.152 68.0547 27.7424 69.0494 26.8062 70.3367C25.8309 71.702 24.8557 72.4626 23.8805 72.6187C22.9443 72.7747 21.8716 72.4431 20.6623 71.6239C20.1942 71.1948 19.7261 70.8048 19.258 70.4537C18.7899 70.1026 18.2242 69.8295 17.5611 69.6345C16.937 69.4005 16.0983 69.2834 15.045 69.2834C14.4209 69.2834 13.8358 69.381 13.2897 69.576C12.7435 69.732 12.2754 69.9661 11.8853 70.2781C11.4953 70.5902 11.1832 70.9803 10.9491 71.4484C10.7151 71.8775 10.5981 72.3651 10.5981 72.9112C10.5981 73.8084 10.8906 74.5301 11.4758 75.0762C12.0999 75.6223 12.8996 76.0709 13.8748 76.422C14.889 76.7341 16.0008 77.0461 17.21 77.3582C18.4583 77.6313 19.7261 77.9628 21.0134 78.3529C22.1836 78.743 23.3149 79.2306 24.4071 79.8157C25.4994 80.3618 26.4746 81.064 27.3328 81.9222C28.191 82.7804 28.8736 83.8531 29.3807 85.1404C29.9268 86.4277 30.1999 88.0075 30.1999 89.8799C30.1999 92.2204 29.7513 94.2294 28.8541 95.9067C27.9569 97.5841 26.7671 98.9494 25.2848 100.003C23.8025 101.056 22.2031 101.817 20.4868 102.285C18.7704 102.792 17.093 103.045 15.4546 103.045Z" fill="#133048"/>
<path d="M15.4546 103.045C13.3872 103.045 11.5733 102.792 10.0129 102.285C8.49159 101.778 7.1848 101.173 6.09256 100.471C5.03932 99.7296 4.20064 99.0079 3.5765 98.3058C2.95236 97.6036 2.52326 97.077 2.28921 96.7259C1.62606 95.8677 1.21647 95.1266 1.06044 94.5024C0.904405 93.8393 0.982422 93.1761 1.29449 92.513C1.64557 91.8499 2.2307 91.1282 3.04988 90.348C3.86906 89.6459 4.62973 89.2753 5.33189 89.2363C6.07305 89.1583 6.79471 89.3338 7.49687 89.7629C8.19902 90.192 8.88168 90.7966 9.54482 91.5768C10.481 92.708 11.3977 93.5077 12.2949 93.9758C13.2311 94.4049 14.2064 94.6195 15.2206 94.6195C16.5079 94.6195 17.6001 94.4634 18.4973 94.1514C19.3945 93.8393 20.0772 93.3517 20.5453 92.6885C21.0134 91.9864 21.2474 91.1087 21.2474 90.0555C21.2474 89.1973 20.9158 88.5146 20.2527 88.0075C19.6286 87.4614 18.7704 86.9933 17.6781 86.6032C16.6249 86.2131 15.4351 85.8425 14.1088 85.4915C12.8215 85.1014 11.5343 84.6528 10.247 84.1457C9.34978 83.8336 8.49159 83.4435 7.67241 82.9754C6.85323 82.5073 6.07305 81.9807 5.33189 81.3956C4.59072 80.8104 3.94708 80.1083 3.40096 79.2891C2.89385 78.4699 2.48426 77.5337 2.17219 76.4805C1.89913 75.4273 1.76259 74.218 1.76259 72.8527C1.76259 70.5512 2.32822 68.5033 3.45947 66.7089C4.59072 64.9145 6.15107 63.5102 8.14051 62.4959C10.169 61.4427 12.49 60.9161 15.1036 60.9161C16.8589 60.9161 18.3803 61.0721 19.6676 61.3842C20.9939 61.6963 22.1056 62.0669 23.0028 62.4959C23.9 62.925 24.6022 63.3541 25.1093 63.7832C25.6554 64.1733 26.026 64.4854 26.221 64.7194C27.3133 65.7337 27.9179 66.6113 28.0349 67.3525C28.152 68.0547 27.7424 69.0494 26.8062 70.3367C25.8309 71.702 24.8557 72.4626 23.8805 72.6187C22.9443 72.7747 21.8716 72.4431 20.6623 71.6239C20.1942 71.1948 19.7261 70.8048 19.258 70.4537C18.7899 70.1026 18.2242 69.8295 17.5611 69.6345C16.937 69.4005 16.0983 69.2834 15.045 69.2834C14.4209 69.2834 13.8358 69.381 13.2897 69.576C12.7435 69.732 12.2754 69.9661 11.8853 70.2781C11.4953 70.5902 11.1832 70.9803 10.9491 71.4484C10.7151 71.8775 10.5981 72.3651 10.5981 72.9112C10.5981 73.8084 10.8906 74.5301 11.4758 75.0762C12.0999 75.6223 12.8996 76.0709 13.8748 76.422C14.889 76.7341 16.0008 77.0461 17.21 77.3582C18.4583 77.6313 19.7261 77.9628 21.0134 78.3529C22.1836 78.743 23.3149 79.2306 24.4071 79.8157C25.4994 80.3618 26.4746 81.064 27.3328 81.9222C28.191 82.7804 28.8736 83.8531 29.3807 85.1404C29.9268 86.4277 30.1999 88.0075 30.1999 89.8799C30.1999 92.2204 29.7513 94.2294 28.8541 95.9067C27.9569 97.5841 26.7671 98.9494 25.2848 100.003C23.8025 101.056 22.2031 101.817 20.4868 102.285C18.7704 102.792 17.093 103.045 15.4546 103.045Z" fill="#133048"/>
<path d="M58.1047 94.5026C59.3139 95.5558 59.9576 96.57 60.0356 97.5452C60.1136 98.4815 59.587 99.5737 58.4557 100.822C57.5975 101.719 56.8369 102.304 56.1737 102.577C55.5496 102.85 54.9255 102.85 54.3013 102.577C53.6772 102.343 52.9555 101.856 52.1363 101.115L42.8913 93.0398V98.0719C42.8913 98.852 42.8133 99.5737 42.6572 100.237C42.5402 100.9 42.1696 101.446 41.5455 101.875C40.9604 102.265 39.9461 102.46 38.5028 102.46C37.0985 102.46 36.0843 102.265 35.4601 101.875C34.836 101.446 34.4459 100.9 34.2899 100.237C34.1728 99.5347 34.1143 98.7935 34.1143 98.0134V64.2515C34.1143 63.4713 34.1924 62.7497 34.3484 62.0865C34.5044 61.4234 34.8945 60.8968 35.5186 60.5067C36.1428 60.0776 37.157 59.863 38.5613 59.863C39.9656 59.863 40.9604 60.0776 41.5455 60.5067C42.1696 60.8968 42.5402 61.4429 42.6572 62.145C42.8133 62.8082 42.8913 63.5298 42.8913 64.31V81.9809L49.4447 75.6615C50.2249 74.9203 50.9466 74.4132 51.6097 74.1401C52.3119 73.8671 52.9945 73.8476 53.6577 74.0816C54.3208 74.3157 55.023 74.8423 55.7641 75.6615C57.0124 77.0268 57.6171 78.1385 57.578 78.9967C57.539 79.8159 56.9344 80.8106 55.7641 81.9809L49.4447 87.7151L58.1047 94.5026Z" fill="#133048"/>
<path d="M161.371 102.453C159.772 102.453 158.348 102.356 157.1 102.161C155.89 102.005 154.837 101.693 153.94 101.224C153.082 100.756 152.38 100.113 151.834 99.2935C151.287 98.4743 150.878 97.4211 150.605 96.1338C150.371 94.8075 150.254 93.1887 150.254 91.2772V64.2443C150.254 63.4642 150.312 62.7425 150.429 62.0794C150.585 61.4162 150.975 60.8701 151.6 60.441C152.224 60.0119 153.238 59.7974 154.642 59.7974C156.046 59.7974 157.041 60.0119 157.626 60.441C158.25 60.8701 158.641 61.4162 158.797 62.0794C158.953 62.7425 159.031 63.4642 159.031 64.2443V90.8676C159.031 91.4918 159.05 92.0184 159.089 92.4475C159.167 92.8376 159.284 93.1496 159.44 93.3837C159.635 93.6177 159.889 93.7738 160.201 93.8518C160.513 93.9298 160.923 93.9688 161.43 93.9688C161.898 93.9688 162.366 94.0273 162.834 94.1444C163.341 94.2614 163.77 94.6125 164.121 95.1976C164.472 95.7827 164.648 96.7579 164.648 98.1232C164.648 99.5275 164.472 100.542 164.121 101.166C163.77 101.79 163.341 102.161 162.834 102.278C162.366 102.395 161.878 102.453 161.371 102.453Z" fill="#133048"/>
<path d="M172.417 102.453C170.974 102.453 169.94 102.258 169.316 101.868C168.731 101.439 168.36 100.893 168.204 100.23C168.087 99.5275 168.029 98.8059 168.029 98.0647V77.6438C168.029 76.8636 168.087 76.1419 168.204 75.4788C168.36 74.8156 168.751 74.289 169.375 73.8989C169.999 73.4698 171.033 73.2553 172.476 73.2553C173.88 73.2553 174.875 73.4698 175.46 73.8989C176.084 74.328 176.455 74.8742 176.572 75.5373C176.728 76.2004 176.806 76.9416 176.806 77.7608V98.1232C176.806 98.8644 176.728 99.586 176.572 100.288C176.455 100.951 176.084 101.478 175.46 101.868C174.875 102.258 173.861 102.453 172.417 102.453ZM172.417 68.9839C170.935 68.9839 169.882 68.7693 169.258 68.3402C168.633 67.9111 168.243 67.3455 168.087 66.6434C167.97 65.9412 167.912 65.2 167.912 64.4199C167.912 63.6007 167.99 62.8595 168.146 62.1964C168.302 61.4942 168.692 60.9481 169.316 60.558C169.94 60.1289 170.994 59.9144 172.476 59.9144C173.919 59.9144 174.953 60.1289 175.577 60.558C176.201 60.9871 176.572 61.5527 176.689 62.2549C176.845 62.9571 176.923 63.6982 176.923 64.4784C176.923 65.2586 176.845 65.9997 176.689 66.7019C176.572 67.404 176.201 67.9696 175.577 68.3987C174.953 68.7888 173.9 68.9839 172.417 68.9839Z" fill="#133048"/>
<path d="M186.296 102.395C184.853 102.395 183.819 102.2 183.195 101.81C182.61 101.38 182.239 100.834 182.083 100.171C181.966 99.469 181.907 98.7474 181.907 98.0062V77.4097C181.907 76.6685 181.985 75.9859 182.141 75.3618C182.297 74.6986 182.668 74.172 183.253 73.7819C183.877 73.3918 184.911 73.1968 186.354 73.1968C187.603 73.1968 188.519 73.3723 189.104 73.7234C189.69 74.0355 190.06 74.4256 190.216 74.8937C190.411 75.3618 190.509 75.8104 190.509 76.2395C190.509 76.6295 190.548 76.9026 190.626 77.0586L190.275 78.1704C190.353 77.5852 190.645 77.0001 191.152 76.415C191.699 75.7909 192.362 75.2447 193.142 74.7766C193.961 74.2695 194.819 73.8794 195.716 73.6064C196.653 73.3333 197.569 73.1968 198.467 73.1968C200.339 73.1968 201.997 73.5479 203.44 74.25C204.923 74.9132 206.171 75.8884 207.185 77.1757C208.199 78.4629 208.96 79.9843 209.467 81.7397C210.013 83.456 210.286 85.3479 210.286 87.4154V98.0647C210.286 98.8059 210.208 99.5275 210.052 100.23C209.935 100.893 209.565 101.419 208.94 101.81C208.355 102.2 207.341 102.395 205.898 102.395C204.415 102.395 203.362 102.2 202.738 101.81C202.153 101.38 201.782 100.834 201.626 100.171C201.47 99.469 201.392 98.7474 201.392 98.0062V87.4154C201.392 86.2451 201.197 85.2504 200.807 84.4312C200.417 83.6121 199.832 82.9879 199.052 82.5588C198.272 82.0907 197.316 81.8567 196.185 81.8567C195.053 81.8567 194.078 82.0907 193.259 82.5588C192.44 83.0269 191.796 83.6706 191.328 84.4898C190.899 85.3089 190.684 86.2841 190.684 87.4154V98.0647C190.684 98.8059 190.606 99.5275 190.45 100.23C190.333 100.893 189.963 101.419 189.339 101.81C188.753 102.2 187.739 102.395 186.296 102.395Z" fill="#133048"/>
<path d="M239.044 94.4954C240.253 95.5487 240.897 96.5629 240.975 97.5381C241.053 98.4743 240.526 99.5665 239.395 100.815C238.537 101.712 237.776 102.297 237.113 102.57C236.489 102.843 235.865 102.843 235.241 102.57C234.616 102.336 233.895 101.849 233.076 101.107L223.831 93.0326V98.0647C223.831 98.8449 223.753 99.5665 223.597 100.23C223.48 100.893 223.109 101.439 222.485 101.868C221.9 102.258 220.885 102.453 219.442 102.453C218.038 102.453 217.024 102.258 216.399 101.868C215.775 101.439 215.385 100.893 215.229 100.23C215.112 99.5275 215.054 98.7864 215.054 98.0062V64.2443C215.054 63.4642 215.132 62.7425 215.288 62.0794C215.444 61.4162 215.834 60.8896 216.458 60.4995C217.082 60.0704 218.096 59.8559 219.501 59.8559C220.905 59.8559 221.9 60.0704 222.485 60.4995C223.109 60.8896 223.48 61.4357 223.597 62.1379C223.753 62.801 223.831 63.5227 223.831 64.3028V81.9737L230.384 75.6543C231.164 74.9132 231.886 74.4061 232.549 74.133C233.251 73.8599 233.934 73.8404 234.597 74.0745C235.26 74.3085 235.962 74.8351 236.703 75.6543C237.952 77.0196 238.556 78.1314 238.517 78.9896C238.478 79.8087 237.874 80.8034 236.703 81.9737L230.384 87.708L239.044 94.4954Z" fill="#133048"/>
<path d="M79.0236 34.4228L105.841 27.237L113.745 56.7363L86.9279 63.922L79.0236 34.4228Z" fill="#032840"/>
<path d="M61.5918 39.0943L123.272 22.5671L123.452 23.2376L61.7714 39.7647L61.5918 39.0943Z" fill="#032840"/>
<path d="M76.7482 33.1098L107.154 24.9622L124.586 20.292L125.727 24.5513L125.625 24.5785L131.252 38.5183L127.807 39.9087L122.01 25.5467L108.295 29.2215L116.02 58.0498L85.6142 66.1969L77.8897 37.3687L60.4579 42.0397L59.3164 37.7809L76.7482 33.1098ZM81.4778 36.4072L88.2409 61.6465L111.47 55.4226L104.707 30.1829L81.4778 36.4072Z" fill="#133048"/>
<path d="M137.369 69.8093C142.131 87.5823 131.584 105.851 113.811 110.613C96.0376 115.375 77.7691 104.828 73.0068 87.055C68.2445 69.2819 78.7918 51.0134 96.565 46.2512C114.338 41.4889 132.607 52.0362 137.369 69.8093Z" fill="#0A4164"/>
<path d="M96.0827 44.4572C114.847 39.4295 134.134 50.5648 139.162 69.3287C144.19 88.0927 133.054 107.38 114.29 112.408C95.526 117.436 76.2389 106.3 71.2111 87.536C66.1834 68.7721 77.3187 49.4851 96.0827 44.4572ZM135.573 70.2906C131.077 53.5085 113.827 43.5492 97.0446 48.0458C80.2624 52.5426 70.3029 69.7924 74.7997 86.5745C79.2965 103.357 96.5464 113.316 113.329 108.819C130.111 104.323 140.07 87.0726 135.573 70.2906Z" fill="#133048"/>
<path d="M137.368 69.8093C138.5 74.0354 138.789 78.4431 138.218 82.7808C137.647 87.1185 136.227 91.3013 134.04 95.0903C131.852 98.8793 128.94 102.2 125.469 104.864C121.998 107.527 118.036 109.481 113.81 110.613C109.584 111.746 105.176 112.034 100.838 111.463C96.5006 110.892 92.3178 109.472 88.5288 107.285C84.7398 105.097 81.4188 102.185 78.7553 98.7138C76.0919 95.2428 74.1382 91.2811 73.0059 87.055L137.368 69.8093Z" fill="#06CF99"/>
<path d="M139.164 69.3287C140.36 73.7904 140.664 78.444 140.061 83.0236C139.459 87.6031 137.96 92.019 135.65 96.0192C133.341 100.019 130.266 103.525 126.601 106.337C122.936 109.149 118.754 111.212 114.292 112.407C109.831 113.603 105.177 113.908 100.598 113.305C96.018 112.702 91.6021 111.203 87.6019 108.894C83.6016 106.584 80.0952 103.509 77.2833 99.8445C74.5593 96.2944 72.5384 92.2583 71.3279 87.9532L71.2136 87.5359L70.7324 85.7414L138.683 67.5342L139.164 69.3287ZM75.3359 88.3541C76.4405 91.6775 78.0933 94.7979 80.2306 97.5833C82.7455 100.861 85.8817 103.61 89.4594 105.676C93.0371 107.742 96.9865 109.083 101.082 109.622C105.178 110.161 109.341 109.888 113.331 108.819C117.321 107.75 121.062 105.905 124.339 103.39C127.617 100.875 130.367 97.7393 132.433 94.1616C134.498 90.5839 135.839 86.6342 136.378 82.5383C136.836 79.0574 136.708 75.5288 136.003 72.0982L75.3359 88.3541Z" fill="#133048"/>
<path d="M105.261 81.2943C105.509 80.79 106.145 80.6198 106.611 80.9325L113.079 85.2647C113.416 85.4903 113.568 85.9084 113.454 86.2975L110.682 95.7591C110.486 96.427 109.653 96.6503 109.149 96.1698L102.018 89.3617C101.725 89.0818 101.647 88.6439 101.826 88.2801L105.261 81.2943Z" fill="white"/>
<path d="M103.665 80.3356C104.429 78.9765 106.17 78.5102 107.511 79.3053L107.643 79.3892L114.111 83.7215L114.204 83.7864C115.119 84.4542 115.538 85.6113 115.264 86.7101L115.234 86.8198L112.463 96.2813C111.894 98.2223 109.529 98.9118 108.009 97.6422L107.865 97.5134L100.734 90.7055C99.8537 89.8655 99.6204 88.5517 100.157 87.4602L103.592 80.4744L103.665 80.3356ZM103.791 88.4883L109.326 93.7725L111.478 86.4285L106.457 83.0662L103.791 88.4883Z" fill="#133048"/>
<path d="M77.8367 65.9992C73.573 62.7164 71.2459 56.616 70.4102 53.2086C70.3164 52.8257 70.7212 52.5302 71.0654 52.7223L84.7109 60.3385C84.8762 60.4308 84.9696 60.614 84.9418 60.8013C84.4388 64.1791 82.4022 69.5144 77.8367 65.9992Z" fill="#0A4164"/>
<path d="M123.043 53.8873C125.094 48.9124 124.059 42.4658 123.079 39.0971C122.969 38.7185 122.47 38.665 122.268 39.0035L114.259 52.422C114.162 52.5846 114.173 52.79 114.291 52.9382C116.415 55.612 120.847 59.2142 123.043 53.8873Z" fill="#0A4164"/>
<path d="M68.6066 53.6514C68.1189 51.6629 70.1603 50.2546 71.8129 51.0197L71.9711 51.1004L85.6166 58.7165L85.7663 58.8077C86.4692 59.273 86.8872 60.1022 86.7912 60.9836L86.7794 61.0752C86.5124 62.8684 85.8118 65.4794 84.316 67.2029C83.5258 68.1134 82.4038 68.8957 80.9319 68.9984C79.5748 69.093 78.2392 68.5866 76.9592 67.6619L76.7039 67.4714C74.2783 65.6038 72.4773 63.0001 71.1879 60.5029C69.973 58.1498 69.1604 55.7899 68.695 54.001L68.6066 53.6514ZM73.2704 56.0799C73.6102 56.9578 74.0149 57.8804 74.489 58.7986C75.6381 61.0241 77.1324 63.1125 78.9705 64.5277L79.1397 64.6538C79.9627 65.2483 80.4541 65.3076 80.6734 65.2923C80.8832 65.2777 81.1577 65.1738 81.5102 64.7676C82.1449 64.0363 82.6366 62.7646 82.9278 61.4707L73.2704 56.0799ZM120.771 37.9021C121.803 36.4377 124.212 36.6066 124.834 38.4844L124.863 38.5783L124.961 38.9257C125.453 40.7076 125.929 43.1574 126.053 45.8026C126.181 48.5222 125.943 51.5685 124.867 54.3293L124.76 54.5956C124.108 56.1791 123.167 57.3954 121.863 58.0317C120.537 58.6788 119.174 58.5626 118.034 58.1692C116.012 57.471 114.205 55.7478 113.057 54.3656L112.837 54.094C112.223 53.3213 112.185 52.2743 112.665 51.47L120.674 38.0518L120.771 37.9021ZM116.37 52.5108C117.269 53.4858 118.331 54.3411 119.246 54.6572C119.755 54.8327 120.045 54.7852 120.234 54.6931C120.444 54.5901 120.881 54.2589 121.326 53.1793L121.407 52.977C122.225 50.8749 122.456 48.4008 122.342 45.9772C122.294 44.9449 122.183 43.9437 122.038 43.0135L116.37 52.5108Z" fill="#133048"/>
<path d="M101.944 74.9929C104.821 85.7308 98.4484 96.768 87.7104 99.6452C76.9725 102.522 65.9353 96.1501 63.058 85.4122C60.1808 74.6743 66.5532 63.6371 77.2911 60.7599C88.029 57.8827 99.0663 64.2551 101.944 74.9929Z" fill="white"/>
<path d="M88.535 78.5848C89.4279 81.9172 87.4503 85.3426 84.1178 86.2355C80.7853 87.1284 77.36 85.1508 76.4671 81.8183C75.5741 78.4859 77.5518 75.0605 80.8842 74.1676C84.2167 73.2747 87.642 75.2523 88.535 78.5848Z" fill="#133048"/>
<path d="M145.005 63.4529C147.883 74.1908 141.51 85.228 130.772 88.1052C120.034 90.9824 108.997 84.6101 106.12 73.8722C103.243 63.1343 109.615 52.0971 120.353 49.2199C131.091 46.3427 142.128 52.715 145.005 63.4529Z" fill="white"/>
<path d="M131.597 67.0448C132.49 70.3772 130.512 73.8025 127.18 74.6955C123.847 75.5884 120.422 73.6108 119.529 70.2783C118.636 66.9459 120.614 63.5205 123.946 62.6276C127.279 61.7347 130.704 63.7123 131.597 67.0448Z" fill="#133048"/>
<path d="M76.809 58.9653C88.5378 55.8227 100.594 62.7831 103.736 74.5119C106.879 86.2407 99.9186 98.2968 88.1897 101.439C76.461 104.582 64.4052 97.6216 61.2624 85.893C58.1197 74.1641 65.0802 62.108 76.809 58.9653ZM100.148 75.4733C97.5359 65.7265 87.5173 59.9422 77.7704 62.5539C68.0235 65.1656 62.2394 75.1842 64.851 84.9311C67.4627 94.678 77.4813 100.463 87.2283 97.8509C96.9753 95.2392 102.759 85.2202 100.148 75.4733ZM119.871 47.4255C131.6 44.2828 143.656 51.2432 146.798 62.972C149.941 74.7008 142.981 86.7565 131.252 89.8992C119.523 93.0419 107.467 86.0815 104.325 74.3527C101.182 62.6239 108.142 50.5682 119.871 47.4255ZM80.4021 72.3731C84.7255 71.2147 89.1695 73.7803 90.328 78.1036C91.4864 82.427 88.9205 86.871 84.5971 88.0294C80.2737 89.1878 75.8296 86.6223 74.6712 82.299C73.5128 77.9756 76.0787 73.5316 80.4021 72.3731ZM143.21 63.9334C140.598 54.1865 130.579 48.4024 120.833 51.014C111.086 53.6257 105.301 63.6443 107.913 73.3912C110.525 83.1382 120.543 88.9223 130.29 86.3106C140.037 83.6989 145.822 73.6803 143.21 63.9334ZM86.7394 79.0655C86.112 76.724 83.7051 75.3343 81.3636 75.9617C79.0221 76.5891 77.6324 78.996 78.2598 81.3375C78.8872 83.679 81.2941 85.0682 83.6356 84.4408C85.9771 83.8134 87.3667 81.4069 86.7394 79.0655ZM123.464 60.8333C127.788 59.6749 132.231 62.2405 133.39 66.5638C134.548 70.8871 131.983 75.3311 127.659 76.4896C123.336 77.648 118.892 75.0824 117.733 70.7591C116.575 66.4357 119.141 61.9917 123.464 60.8333ZM129.802 67.5252C129.174 65.1837 126.767 63.7945 124.426 64.4219C122.084 65.0493 120.695 67.4558 121.322 69.7972C121.949 72.1387 124.356 73.5284 126.698 72.901C129.039 72.2736 130.429 69.8667 129.802 67.5252Z" fill="#133048"/>
</svg>
